M48
; DRILL file {KiCad 5.1.5+dfsg1-2build2} date Tue 28 Dec 2021 08:55:27 PM CET
; FORMAT={-:-/ absolute / metric / decimal}
; #@! TF.CreationDate,2021-12-28T20:55:27+01:00
; #@! TF.GenerationSoftware,Kicad,Pcbnew,5.1.5+dfsg1-2build2
; #@! TF.FileFunction,Plated,1,2,PTH
FMAT,2
METRIC
T1C0.400
T2C1.000
%
G90
G05
T1
X134.493Y-156.604
X139.446Y-165.862
X140.716Y-150.114
X141.224Y-149.352
X141.287Y-160.198
X141.732Y-150.114
X142.24Y-149.352
X142.748Y-150.114
X143.256Y-149.352
X143.256Y-154.94
X143.51Y-153.924
X143.51Y-169.418
X143.764Y-150.114
X144.272Y-149.352
X144.78Y-150.114
X145.288Y-149.352
X145.796Y-150.114
X146.304Y-149.352
X146.304Y-168.148
X146.812Y-150.114
X147.32Y-149.352
X147.828Y-150.114
X148.336Y-149.352
X148.844Y-150.114
X149.352Y-149.352
X149.352Y-156.464
X149.504Y-168.258
X149.86Y-150.114
X150.368Y-155.956
X150.368Y-156.972
X150.622Y-143.764
X153.924Y-152.146
X154.178Y-158.496
X154.432Y-156.21
X154.94Y-151.13
X154.94Y-153.924
X155.702Y-156.972
X156.21Y-158.386
X156.464Y-153.924
X157.226Y-167.386
X159.258Y-155.956
X159.512Y-155.194
X159.512Y-156.718
X160.248Y-152.146
X160.274Y-155.194
X160.274Y-155.956
X160.274Y-156.718
X160.274Y-159.512
X160.274Y-166.878
X160.528Y-150.876
X161.036Y-155.956
X163.068Y-166.116
X163.322Y-155.956
X163.83Y-167.132
X164.084Y-155.194
X164.47Y-147.574
X164.846Y-153.416
X164.846Y-154.432
X165.608Y-162.306
X165.862Y-151.13
X166.624Y-163.576
X166.878Y-151.892
X166.878Y-153.416
X166.878Y-162.052
X167.132Y-150.622
X167.894Y-161.036
X168.91Y-146.05
X169.418Y-148.844
X169.926Y-143.51
X169.926Y-149.606
X170.434Y-148.844
X170.942Y-149.606
X171.45Y-148.844
X171.958Y-149.606
X172.466Y-148.844
X172.974Y-149.606
X173.482Y-148.844
X173.99Y-149.606
X174.498Y-148.844
X175.006Y-149.606
X175.514Y-148.844
X176.022Y-149.606
X176.53Y-148.844
X176.53Y-160.782
X177.038Y-149.606
X177.546Y-148.844
X178.054Y-149.606
X178.562Y-148.844
X179.07Y-149.606
X179.578Y-148.844
X180.086Y-149.606
X180.594Y-148.844
X181.102Y-149.606
X181.61Y-148.844
X182.118Y-149.606
X182.372Y-160.782
T2
X133.35Y-159.512
X133.35Y-162.052
X133.35Y-164.592
X133.35Y-167.132
X131.445Y-145.136
X131.445Y-147.676
X131.445Y-150.216
X131.445Y-152.756
X193.611Y-145.644
X193.611Y-148.184
X193.611Y-150.724
X193.611Y-153.264
T0
M30
