%TF.GenerationSoftware,KiCad,Pcbnew,5.1.5+dfsg1-2build2*%
%TF.CreationDate,2021-12-28T20:55:31+01:00*%
%TF.ProjectId,Exousia,45786f75-7369-4612-9e6b-696361645f70,rev?*%
%TF.SameCoordinates,Original*%
%TF.FileFunction,Legend,Top*%
%TF.FilePolarity,Positive*%
%FSLAX46Y46*%
G04 Gerber Fmt 4.6, Leading zero omitted, Abs format (unit mm)*
G04 Created by KiCad (PCBNEW 5.1.5+dfsg1-2build2) date 2021-12-28 20:55:31*
%MOMM*%
%LPD*%
G04 APERTURE LIST*
%ADD10C,0.120000*%
%ADD11C,0.150000*%
G04 APERTURE END LIST*
D10*
%TO.C,R24*%
X188943264Y-143781200D02*
X184589136Y-143781200D01*
X188943264Y-147201200D02*
X184589136Y-147201200D01*
%TO.C,R2*%
X139679964Y-143489100D02*
X135325836Y-143489100D01*
X139679964Y-146909100D02*
X135325836Y-146909100D01*
%TO.C,U3*%
X160267487Y-158692503D02*
X160020000Y-158939991D01*
X160020000Y-158939991D02*
X159772513Y-158692503D01*
X159772513Y-153219497D02*
X160020000Y-152972009D01*
X160020000Y-152972009D02*
X160267487Y-153219497D01*
X157283497Y-155708513D02*
X157036009Y-155956000D01*
X157036009Y-155956000D02*
X157283497Y-156203487D01*
X162756503Y-156203487D02*
X163003991Y-155956000D01*
%TO.C,JP4*%
X161674000Y-166862000D02*
X158874000Y-166862000D01*
X158224000Y-166162000D02*
X158224000Y-165562000D01*
X158874000Y-164862000D02*
X161674000Y-164862000D01*
X162324000Y-165562000D02*
X162324000Y-166162000D01*
X162324000Y-166162000D02*
G75*
G02X161624000Y-166862000I-700000J0D01*
G01*
X161624000Y-164862000D02*
G75*
G02X162324000Y-165562000I0J-700000D01*
G01*
X158224000Y-165562000D02*
G75*
G02X158924000Y-164862000I700000J0D01*
G01*
X158924000Y-166862000D02*
G75*
G02X158224000Y-166162000I0J700000D01*
G01*
%TO.C,JP3*%
X156848000Y-166862000D02*
X154048000Y-166862000D01*
X153398000Y-166162000D02*
X153398000Y-165562000D01*
X154048000Y-164862000D02*
X156848000Y-164862000D01*
X157498000Y-165562000D02*
X157498000Y-166162000D01*
X157498000Y-166162000D02*
G75*
G02X156798000Y-166862000I-700000J0D01*
G01*
X156798000Y-164862000D02*
G75*
G02X157498000Y-165562000I0J-700000D01*
G01*
X153398000Y-165562000D02*
G75*
G02X154098000Y-164862000I700000J0D01*
G01*
X154098000Y-166862000D02*
G75*
G02X153398000Y-166162000I0J700000D01*
G01*
%TO.C,JP2*%
X146936000Y-164862000D02*
X149736000Y-164862000D01*
X150386000Y-165562000D02*
X150386000Y-166162000D01*
X149736000Y-166862000D02*
X146936000Y-166862000D01*
X146286000Y-166162000D02*
X146286000Y-165562000D01*
X146286000Y-165562000D02*
G75*
G02X146986000Y-164862000I700000J0D01*
G01*
X146986000Y-166862000D02*
G75*
G02X146286000Y-166162000I0J700000D01*
G01*
X150386000Y-166162000D02*
G75*
G02X149686000Y-166862000I-700000J0D01*
G01*
X149686000Y-164862000D02*
G75*
G02X150386000Y-165562000I0J-700000D01*
G01*
%TO.C,JP1*%
X141064000Y-164862000D02*
X143864000Y-164862000D01*
X144514000Y-165562000D02*
X144514000Y-166162000D01*
X143864000Y-166862000D02*
X141064000Y-166862000D01*
X140414000Y-166162000D02*
X140414000Y-165562000D01*
X140414000Y-165562000D02*
G75*
G02X141114000Y-164862000I700000J0D01*
G01*
X141114000Y-166862000D02*
G75*
G02X140414000Y-166162000I0J700000D01*
G01*
X144514000Y-166162000D02*
G75*
G02X143814000Y-166862000I-700000J0D01*
G01*
X143814000Y-164862000D02*
G75*
G02X144514000Y-165562000I0J-700000D01*
G01*
%TO.C,J3*%
X194941500Y-151993600D02*
X192281500Y-151993600D01*
X194941500Y-151993600D02*
X194941500Y-144313600D01*
X194941500Y-144313600D02*
X192281500Y-144313600D01*
X192281500Y-151993600D02*
X192281500Y-144313600D01*
X192281500Y-154593600D02*
X192281500Y-153263600D01*
X193611500Y-154593600D02*
X192281500Y-154593600D01*
%TO.C,J1*%
X132775000Y-151485600D02*
X130115000Y-151485600D01*
X132775000Y-151485600D02*
X132775000Y-143805600D01*
X132775000Y-143805600D02*
X130115000Y-143805600D01*
X130115000Y-151485600D02*
X130115000Y-143805600D01*
X130115000Y-154085600D02*
X130115000Y-152755600D01*
X131445000Y-154085600D02*
X130115000Y-154085600D01*
%TO.C,U5*%
X168257000Y-147072000D02*
X165257000Y-147072000D01*
X166757000Y-150292000D02*
X165257000Y-150292000D01*
%TO.C,U4*%
X165257000Y-146552000D02*
X168257000Y-146552000D01*
X166757000Y-143332000D02*
X168257000Y-143332000D01*
%TO.C,U2*%
X151287000Y-150362000D02*
X154287000Y-150362000D01*
X152787000Y-147142000D02*
X154287000Y-147142000D01*
%TO.C,U1*%
X154287000Y-143332000D02*
X151287000Y-143332000D01*
X152787000Y-146552000D02*
X151287000Y-146552000D01*
%TO.C,R27*%
X136920500Y-166099258D02*
X136920500Y-165624742D01*
X135875500Y-166099258D02*
X135875500Y-165624742D01*
%TO.C,R26*%
X138698500Y-166099258D02*
X138698500Y-165624742D01*
X137653500Y-166099258D02*
X137653500Y-165624742D01*
%TO.C,R25*%
X188025300Y-149995658D02*
X188025300Y-149521142D01*
X186980300Y-149995658D02*
X186980300Y-149521142D01*
%TO.C,R23*%
X186247300Y-149995658D02*
X186247300Y-149521142D01*
X185202300Y-149995658D02*
X185202300Y-149521142D01*
%TO.C,R22*%
X164875230Y-160072303D02*
X164539697Y-159736770D01*
X164136303Y-160811230D02*
X163800770Y-160475697D01*
%TO.C,R21*%
X163605230Y-161342303D02*
X163269697Y-161006770D01*
X162866303Y-162081230D02*
X162530770Y-161745697D01*
%TO.C,R20*%
X147813500Y-152924742D02*
X147813500Y-153399258D01*
X148858500Y-152924742D02*
X148858500Y-153399258D01*
%TO.C,R19*%
X159749258Y-167625500D02*
X159274742Y-167625500D01*
X159749258Y-168670500D02*
X159274742Y-168670500D01*
%TO.C,R18*%
X159274742Y-164098500D02*
X159749258Y-164098500D01*
X159274742Y-163053500D02*
X159749258Y-163053500D01*
%TO.C,R17*%
X165070770Y-159205697D02*
X165406303Y-159541230D01*
X165809697Y-158466770D02*
X166145230Y-158802303D01*
%TO.C,R16*%
X155972742Y-168670500D02*
X156447258Y-168670500D01*
X155972742Y-167625500D02*
X156447258Y-167625500D01*
%TO.C,R15*%
X156447258Y-163053500D02*
X155972742Y-163053500D01*
X156447258Y-164098500D02*
X155972742Y-164098500D01*
%TO.C,R14*%
X166340770Y-157935697D02*
X166676303Y-158271230D01*
X167079697Y-157196770D02*
X167415230Y-157532303D01*
%TO.C,R13*%
X168880770Y-155395697D02*
X169216303Y-155731230D01*
X169619697Y-154656770D02*
X169955230Y-154992303D01*
%TO.C,R12*%
X187722742Y-162828500D02*
X188197258Y-162828500D01*
X187722742Y-161783500D02*
X188197258Y-161783500D01*
%TO.C,R11*%
X184895258Y-161783500D02*
X184420742Y-161783500D01*
X184895258Y-162828500D02*
X184420742Y-162828500D01*
%TO.C,R10*%
X173752742Y-162828500D02*
X174227258Y-162828500D01*
X173752742Y-161783500D02*
X174227258Y-161783500D01*
%TO.C,R9*%
X146033258Y-155179500D02*
X145558742Y-155179500D01*
X146033258Y-156224500D02*
X145558742Y-156224500D01*
%TO.C,R8*%
X170925258Y-161783500D02*
X170450742Y-161783500D01*
X170925258Y-162828500D02*
X170450742Y-162828500D01*
%TO.C,R7*%
X145556500Y-162289258D02*
X145556500Y-161814742D01*
X144511500Y-162289258D02*
X144511500Y-161814742D01*
%TO.C,R6*%
X146289500Y-161814742D02*
X146289500Y-162289258D01*
X147334500Y-161814742D02*
X147334500Y-162289258D01*
%TO.C,R5*%
X180864742Y-162828500D02*
X181339258Y-162828500D01*
X180864742Y-161783500D02*
X181339258Y-161783500D01*
%TO.C,R4*%
X138736600Y-149030458D02*
X138736600Y-148555942D01*
X137691600Y-149030458D02*
X137691600Y-148555942D01*
%TO.C,R3*%
X178037258Y-161783500D02*
X177562742Y-161783500D01*
X178037258Y-162828500D02*
X177562742Y-162828500D01*
%TO.C,R1*%
X136958600Y-149030458D02*
X136958600Y-148555942D01*
X135913600Y-149030458D02*
X135913600Y-148555942D01*
%TO.C,Q3*%
X185672000Y-166680000D02*
X184212000Y-166680000D01*
X185672000Y-163520000D02*
X183512000Y-163520000D01*
X185672000Y-163520000D02*
X185672000Y-164450000D01*
X185672000Y-166680000D02*
X185672000Y-165750000D01*
%TO.C,Q2*%
X171702000Y-166680000D02*
X170242000Y-166680000D01*
X171702000Y-163520000D02*
X169542000Y-163520000D01*
X171702000Y-163520000D02*
X171702000Y-164450000D01*
X171702000Y-166680000D02*
X171702000Y-165750000D01*
%TO.C,Q1*%
X178814000Y-166680000D02*
X177354000Y-166680000D01*
X178814000Y-163520000D02*
X176654000Y-163520000D01*
X178814000Y-163520000D02*
X178814000Y-164450000D01*
X178814000Y-166680000D02*
X178814000Y-165750000D01*
%TO.C,J2*%
X133350000Y-158182000D02*
X134680000Y-158182000D01*
X134680000Y-158182000D02*
X134680000Y-159512000D01*
X134680000Y-160782000D02*
X134680000Y-168462000D01*
X132020000Y-168462000D02*
X134680000Y-168462000D01*
X132020000Y-160782000D02*
X132020000Y-168462000D01*
X132020000Y-160782000D02*
X134680000Y-160782000D01*
%TO.C,D4*%
X189349000Y-167893000D02*
X189349000Y-164008000D01*
X187079000Y-167893000D02*
X189349000Y-167893000D01*
X187079000Y-164008000D02*
X187079000Y-167893000D01*
%TO.C,D3*%
X175379000Y-167893000D02*
X175379000Y-164008000D01*
X173109000Y-167893000D02*
X175379000Y-167893000D01*
X173109000Y-164008000D02*
X173109000Y-167893000D01*
%TO.C,D2*%
X145290000Y-156916000D02*
X146750000Y-156916000D01*
X145290000Y-160076000D02*
X147450000Y-160076000D01*
X145290000Y-160076000D02*
X145290000Y-159146000D01*
X145290000Y-156916000D02*
X145290000Y-157846000D01*
%TO.C,D1*%
X182491000Y-167893000D02*
X182491000Y-164008000D01*
X180221000Y-167893000D02*
X182491000Y-167893000D01*
X180221000Y-164008000D02*
X180221000Y-167893000D01*
%TO.C,C25*%
X188012800Y-154978980D02*
X188012800Y-154697820D01*
X186992800Y-154978980D02*
X186992800Y-154697820D01*
%TO.C,C24*%
X186627380Y-151788400D02*
X186346220Y-151788400D01*
X186627380Y-152808400D02*
X186346220Y-152808400D01*
%TO.C,C23*%
X186234800Y-154978980D02*
X186234800Y-154697820D01*
X185214800Y-154978980D02*
X185214800Y-154697820D01*
%TO.C,C22*%
X180875000Y-146042748D02*
X180875000Y-146565252D01*
X182345000Y-146042748D02*
X182345000Y-146565252D01*
%TO.C,C21*%
X178589000Y-146042748D02*
X178589000Y-146565252D01*
X180059000Y-146042748D02*
X180059000Y-146565252D01*
%TO.C,C20*%
X176303000Y-146042748D02*
X176303000Y-146565252D01*
X177773000Y-146042748D02*
X177773000Y-146565252D01*
%TO.C,C19*%
X174017000Y-146042748D02*
X174017000Y-146565252D01*
X175487000Y-146042748D02*
X175487000Y-146565252D01*
%TO.C,C18*%
X171731000Y-146042748D02*
X171731000Y-146565252D01*
X173201000Y-146042748D02*
X173201000Y-146565252D01*
%TO.C,C17*%
X169445000Y-146042748D02*
X169445000Y-146565252D01*
X170915000Y-146042748D02*
X170915000Y-146565252D01*
%TO.C,C16*%
X145936580Y-151636000D02*
X145655420Y-151636000D01*
X145936580Y-152656000D02*
X145655420Y-152656000D01*
%TO.C,C15*%
X145936580Y-153414000D02*
X145655420Y-153414000D01*
X145936580Y-154434000D02*
X145655420Y-154434000D01*
%TO.C,C14*%
X162419420Y-151894000D02*
X162700580Y-151894000D01*
X162419420Y-150874000D02*
X162700580Y-150874000D01*
%TO.C,C13*%
X157112580Y-150874000D02*
X156831420Y-150874000D01*
X157112580Y-151894000D02*
X156831420Y-151894000D01*
%TO.C,C12*%
X169772420Y-160022000D02*
X170053580Y-160022000D01*
X169772420Y-159002000D02*
X170053580Y-159002000D01*
%TO.C,C11*%
X171243970Y-157741219D02*
X171442781Y-157940030D01*
X171965219Y-157019970D02*
X172164030Y-157218781D01*
%TO.C,C10*%
X167687970Y-156725219D02*
X167886781Y-156924030D01*
X168409219Y-156003970D02*
X168608030Y-156202781D01*
%TO.C,C9*%
X148617000Y-146804748D02*
X148617000Y-147327252D01*
X150087000Y-146804748D02*
X150087000Y-147327252D01*
%TO.C,C8*%
X146331000Y-146804748D02*
X146331000Y-147327252D01*
X147801000Y-146804748D02*
X147801000Y-147327252D01*
%TO.C,C7*%
X143766000Y-162192580D02*
X143766000Y-161911420D01*
X142746000Y-162192580D02*
X142746000Y-161911420D01*
%TO.C,C6*%
X144045000Y-146804748D02*
X144045000Y-147327252D01*
X145515000Y-146804748D02*
X145515000Y-147327252D01*
%TO.C,C5*%
X142746000Y-158609420D02*
X142746000Y-158890580D01*
X143766000Y-158609420D02*
X143766000Y-158890580D01*
%TO.C,C4*%
X141759000Y-146804748D02*
X141759000Y-147327252D01*
X143229000Y-146804748D02*
X143229000Y-147327252D01*
%TO.C,C3*%
X138724100Y-154013780D02*
X138724100Y-153732620D01*
X137704100Y-154013780D02*
X137704100Y-153732620D01*
%TO.C,C2*%
X137592680Y-150823200D02*
X137311520Y-150823200D01*
X137592680Y-151843200D02*
X137311520Y-151843200D01*
%TO.C,C1*%
X136946100Y-154013780D02*
X136946100Y-153732620D01*
X135926100Y-154013780D02*
X135926100Y-153732620D01*
%TO.C,R24*%
D11*
X186123342Y-148563580D02*
X185790009Y-148087390D01*
X185551914Y-148563580D02*
X185551914Y-147563580D01*
X185932866Y-147563580D01*
X186028104Y-147611200D01*
X186075723Y-147658819D01*
X186123342Y-147754057D01*
X186123342Y-147896914D01*
X186075723Y-147992152D01*
X186028104Y-148039771D01*
X185932866Y-148087390D01*
X185551914Y-148087390D01*
X186504295Y-147658819D02*
X186551914Y-147611200D01*
X186647152Y-147563580D01*
X186885247Y-147563580D01*
X186980485Y-147611200D01*
X187028104Y-147658819D01*
X187075723Y-147754057D01*
X187075723Y-147849295D01*
X187028104Y-147992152D01*
X186456676Y-148563580D01*
X187075723Y-148563580D01*
X187932866Y-147896914D02*
X187932866Y-148563580D01*
X187694771Y-147515961D02*
X187456676Y-148230247D01*
X188075723Y-148230247D01*
%TO.C,R2*%
X137336233Y-148271480D02*
X137002900Y-147795290D01*
X136764804Y-148271480D02*
X136764804Y-147271480D01*
X137145757Y-147271480D01*
X137240995Y-147319100D01*
X137288614Y-147366719D01*
X137336233Y-147461957D01*
X137336233Y-147604814D01*
X137288614Y-147700052D01*
X137240995Y-147747671D01*
X137145757Y-147795290D01*
X136764804Y-147795290D01*
X137717185Y-147366719D02*
X137764804Y-147319100D01*
X137860042Y-147271480D01*
X138098138Y-147271480D01*
X138193376Y-147319100D01*
X138240995Y-147366719D01*
X138288614Y-147461957D01*
X138288614Y-147557195D01*
X138240995Y-147700052D01*
X137669566Y-148271480D01*
X138288614Y-148271480D01*
%TO.C,L1*%
X159853333Y-147264380D02*
X159377142Y-147264380D01*
X159377142Y-146264380D01*
X160710476Y-147264380D02*
X160139047Y-147264380D01*
X160424761Y-147264380D02*
X160424761Y-146264380D01*
X160329523Y-146407238D01*
X160234285Y-146502476D01*
X160139047Y-146550095D01*
%TO.C,U3*%
X161427478Y-158440974D02*
X161999898Y-159013394D01*
X162100913Y-159047066D01*
X162168257Y-159047066D01*
X162269272Y-159013394D01*
X162403959Y-158878707D01*
X162437631Y-158777692D01*
X162437631Y-158710348D01*
X162403959Y-158609333D01*
X161831539Y-158036913D01*
X162100913Y-157767539D02*
X162538646Y-157329807D01*
X162572318Y-157834883D01*
X162673333Y-157733868D01*
X162774348Y-157700196D01*
X162841692Y-157700196D01*
X162942707Y-157733868D01*
X163111066Y-157902226D01*
X163144738Y-158003242D01*
X163144738Y-158070585D01*
X163111066Y-158171600D01*
X162909035Y-158373631D01*
X162808020Y-158407303D01*
X162740677Y-158407303D01*
%TO.C,JP4*%
X161726666Y-167600380D02*
X161726666Y-168314666D01*
X161679047Y-168457523D01*
X161583809Y-168552761D01*
X161440952Y-168600380D01*
X161345714Y-168600380D01*
X162202857Y-168600380D02*
X162202857Y-167600380D01*
X162583809Y-167600380D01*
X162679047Y-167648000D01*
X162726666Y-167695619D01*
X162774285Y-167790857D01*
X162774285Y-167933714D01*
X162726666Y-168028952D01*
X162679047Y-168076571D01*
X162583809Y-168124190D01*
X162202857Y-168124190D01*
X163631428Y-167933714D02*
X163631428Y-168600380D01*
X163393333Y-167552761D02*
X163155238Y-168267047D01*
X163774285Y-168267047D01*
X163159714Y-166314380D02*
X162588285Y-166314380D01*
X162874000Y-166314380D02*
X162874000Y-165314380D01*
X162778761Y-165457238D01*
X162683523Y-165552476D01*
X162588285Y-165600095D01*
X158162666Y-166330380D02*
X158781714Y-166330380D01*
X158448380Y-166711333D01*
X158591238Y-166711333D01*
X158686476Y-166758952D01*
X158734095Y-166806571D01*
X158781714Y-166901809D01*
X158781714Y-167139904D01*
X158734095Y-167235142D01*
X158686476Y-167282761D01*
X158591238Y-167330380D01*
X158305523Y-167330380D01*
X158210285Y-167282761D01*
X158162666Y-167235142D01*
%TO.C,JP3*%
X152328666Y-167600380D02*
X152328666Y-168314666D01*
X152281047Y-168457523D01*
X152185809Y-168552761D01*
X152042952Y-168600380D01*
X151947714Y-168600380D01*
X152804857Y-168600380D02*
X152804857Y-167600380D01*
X153185809Y-167600380D01*
X153281047Y-167648000D01*
X153328666Y-167695619D01*
X153376285Y-167790857D01*
X153376285Y-167933714D01*
X153328666Y-168028952D01*
X153281047Y-168076571D01*
X153185809Y-168124190D01*
X152804857Y-168124190D01*
X153709619Y-167600380D02*
X154328666Y-167600380D01*
X153995333Y-167981333D01*
X154138190Y-167981333D01*
X154233428Y-168028952D01*
X154281047Y-168076571D01*
X154328666Y-168171809D01*
X154328666Y-168409904D01*
X154281047Y-168505142D01*
X154233428Y-168552761D01*
X154138190Y-168600380D01*
X153852476Y-168600380D01*
X153757238Y-168552761D01*
X153709619Y-168505142D01*
X157765714Y-167330380D02*
X157194285Y-167330380D01*
X157480000Y-167330380D02*
X157480000Y-166330380D01*
X157384761Y-166473238D01*
X157289523Y-166568476D01*
X157194285Y-166616095D01*
X152514666Y-165314380D02*
X153133714Y-165314380D01*
X152800380Y-165695333D01*
X152943238Y-165695333D01*
X153038476Y-165742952D01*
X153086095Y-165790571D01*
X153133714Y-165885809D01*
X153133714Y-166123904D01*
X153086095Y-166219142D01*
X153038476Y-166266761D01*
X152943238Y-166314380D01*
X152657523Y-166314380D01*
X152562285Y-166266761D01*
X152514666Y-166219142D01*
%TO.C,JP2*%
X147451866Y-167574980D02*
X147451866Y-168289266D01*
X147404247Y-168432123D01*
X147309009Y-168527361D01*
X147166152Y-168574980D01*
X147070914Y-168574980D01*
X147928057Y-168574980D02*
X147928057Y-167574980D01*
X148309009Y-167574980D01*
X148404247Y-167622600D01*
X148451866Y-167670219D01*
X148499485Y-167765457D01*
X148499485Y-167908314D01*
X148451866Y-168003552D01*
X148404247Y-168051171D01*
X148309009Y-168098790D01*
X147928057Y-168098790D01*
X148880438Y-167670219D02*
X148928057Y-167622600D01*
X149023295Y-167574980D01*
X149261390Y-167574980D01*
X149356628Y-167622600D01*
X149404247Y-167670219D01*
X149451866Y-167765457D01*
X149451866Y-167860695D01*
X149404247Y-168003552D01*
X148832819Y-168574980D01*
X149451866Y-168574980D01*
X146021714Y-166822380D02*
X145450285Y-166822380D01*
X145736000Y-166822380D02*
X145736000Y-165822380D01*
X145640761Y-165965238D01*
X145545523Y-166060476D01*
X145450285Y-166108095D01*
X150602666Y-165822380D02*
X151221714Y-165822380D01*
X150888380Y-166203333D01*
X151031238Y-166203333D01*
X151126476Y-166250952D01*
X151174095Y-166298571D01*
X151221714Y-166393809D01*
X151221714Y-166631904D01*
X151174095Y-166727142D01*
X151126476Y-166774761D01*
X151031238Y-166822380D01*
X150745523Y-166822380D01*
X150650285Y-166774761D01*
X150602666Y-166727142D01*
%TO.C,JP1*%
X141406666Y-167600380D02*
X141406666Y-168314666D01*
X141359047Y-168457523D01*
X141263809Y-168552761D01*
X141120952Y-168600380D01*
X141025714Y-168600380D01*
X141882857Y-168600380D02*
X141882857Y-167600380D01*
X142263809Y-167600380D01*
X142359047Y-167648000D01*
X142406666Y-167695619D01*
X142454285Y-167790857D01*
X142454285Y-167933714D01*
X142406666Y-168028952D01*
X142359047Y-168076571D01*
X142263809Y-168124190D01*
X141882857Y-168124190D01*
X143406666Y-168600380D02*
X142835238Y-168600380D01*
X143120952Y-168600380D02*
X143120952Y-167600380D01*
X143025714Y-167743238D01*
X142930476Y-167838476D01*
X142835238Y-167886095D01*
X140149714Y-166822380D02*
X139578285Y-166822380D01*
X139864000Y-166822380D02*
X139864000Y-165822380D01*
X139768761Y-165965238D01*
X139673523Y-166060476D01*
X139578285Y-166108095D01*
X144700666Y-165822380D02*
X145319714Y-165822380D01*
X144986380Y-166203333D01*
X145129238Y-166203333D01*
X145224476Y-166250952D01*
X145272095Y-166298571D01*
X145319714Y-166393809D01*
X145319714Y-166631904D01*
X145272095Y-166727142D01*
X145224476Y-166774761D01*
X145129238Y-166822380D01*
X144843523Y-166822380D01*
X144748285Y-166774761D01*
X144700666Y-166727142D01*
%TO.C,J3*%
X191155580Y-152417161D02*
X190488914Y-152417161D01*
X190155580Y-152417161D02*
X190203200Y-152464780D01*
X190250819Y-152417161D01*
X190203200Y-152369542D01*
X190155580Y-152417161D01*
X190250819Y-152417161D01*
X190488914Y-151940971D02*
X191155580Y-151940971D01*
X190584152Y-151940971D02*
X190536533Y-151893352D01*
X190488914Y-151798114D01*
X190488914Y-151655257D01*
X190536533Y-151560019D01*
X190631771Y-151512400D01*
X191155580Y-151512400D01*
X190107961Y-150321923D02*
X191393676Y-151179066D01*
X190155580Y-149798114D02*
X190155580Y-149607638D01*
X190203200Y-149512400D01*
X190298438Y-149417161D01*
X190488914Y-149369542D01*
X190822247Y-149369542D01*
X191012723Y-149417161D01*
X191107961Y-149512400D01*
X191155580Y-149607638D01*
X191155580Y-149798114D01*
X191107961Y-149893352D01*
X191012723Y-149988590D01*
X190822247Y-150036209D01*
X190488914Y-150036209D01*
X190298438Y-149988590D01*
X190203200Y-149893352D01*
X190155580Y-149798114D01*
X190155580Y-148940971D02*
X190965104Y-148940971D01*
X191060342Y-148893352D01*
X191107961Y-148845733D01*
X191155580Y-148750495D01*
X191155580Y-148560019D01*
X191107961Y-148464780D01*
X191060342Y-148417161D01*
X190965104Y-148369542D01*
X190155580Y-148369542D01*
X190155580Y-148036209D02*
X190155580Y-147464780D01*
X191155580Y-147750495D02*
X190155580Y-147750495D01*
%TO.C,J1*%
X134361180Y-151272595D02*
X133361180Y-151272595D01*
X134361180Y-150796404D02*
X133361180Y-150796404D01*
X134361180Y-150224976D01*
X133361180Y-150224976D01*
X133313561Y-149034500D02*
X134599276Y-149891642D01*
X134361180Y-148558309D02*
X134313561Y-148653547D01*
X134265942Y-148701166D01*
X134170704Y-148748785D01*
X133884990Y-148748785D01*
X133789752Y-148701166D01*
X133742133Y-148653547D01*
X133694514Y-148558309D01*
X133694514Y-148415452D01*
X133742133Y-148320214D01*
X133789752Y-148272595D01*
X133884990Y-148224976D01*
X134170704Y-148224976D01*
X134265942Y-148272595D01*
X134313561Y-148320214D01*
X134361180Y-148415452D01*
X134361180Y-148558309D01*
X133694514Y-147367833D02*
X134361180Y-147367833D01*
X133694514Y-147796404D02*
X134218323Y-147796404D01*
X134313561Y-147748785D01*
X134361180Y-147653547D01*
X134361180Y-147510690D01*
X134313561Y-147415452D01*
X134265942Y-147367833D01*
X133694514Y-147034500D02*
X133694514Y-146653547D01*
X133361180Y-146891642D02*
X134218323Y-146891642D01*
X134313561Y-146844023D01*
X134361180Y-146748785D01*
X134361180Y-146653547D01*
%TO.C,U5*%
X165874095Y-150836380D02*
X165874095Y-151645904D01*
X165921714Y-151741142D01*
X165969333Y-151788761D01*
X166064571Y-151836380D01*
X166255047Y-151836380D01*
X166350285Y-151788761D01*
X166397904Y-151741142D01*
X166445523Y-151645904D01*
X166445523Y-150836380D01*
X167397904Y-150836380D02*
X166921714Y-150836380D01*
X166874095Y-151312571D01*
X166921714Y-151264952D01*
X167016952Y-151217333D01*
X167255047Y-151217333D01*
X167350285Y-151264952D01*
X167397904Y-151312571D01*
X167445523Y-151407809D01*
X167445523Y-151645904D01*
X167397904Y-151741142D01*
X167350285Y-151788761D01*
X167255047Y-151836380D01*
X167016952Y-151836380D01*
X166921714Y-151788761D01*
X166874095Y-151741142D01*
%TO.C,U4*%
X172465904Y-143470380D02*
X172465904Y-144279904D01*
X172418285Y-144375142D01*
X172370666Y-144422761D01*
X172275428Y-144470380D01*
X172084952Y-144470380D01*
X171989714Y-144422761D01*
X171942095Y-144375142D01*
X171894476Y-144279904D01*
X171894476Y-143470380D01*
X170989714Y-143803714D02*
X170989714Y-144470380D01*
X171227809Y-143422761D02*
X171465904Y-144137047D01*
X170846857Y-144137047D01*
%TO.C,U2*%
X152146095Y-150836380D02*
X152146095Y-151645904D01*
X152193714Y-151741142D01*
X152241333Y-151788761D01*
X152336571Y-151836380D01*
X152527047Y-151836380D01*
X152622285Y-151788761D01*
X152669904Y-151741142D01*
X152717523Y-151645904D01*
X152717523Y-150836380D01*
X153146095Y-150931619D02*
X153193714Y-150884000D01*
X153288952Y-150836380D01*
X153527047Y-150836380D01*
X153622285Y-150884000D01*
X153669904Y-150931619D01*
X153717523Y-151026857D01*
X153717523Y-151122095D01*
X153669904Y-151264952D01*
X153098476Y-151836380D01*
X153717523Y-151836380D01*
%TO.C,U1*%
X148590095Y-143216380D02*
X148590095Y-144025904D01*
X148637714Y-144121142D01*
X148685333Y-144168761D01*
X148780571Y-144216380D01*
X148971047Y-144216380D01*
X149066285Y-144168761D01*
X149113904Y-144121142D01*
X149161523Y-144025904D01*
X149161523Y-143216380D01*
X150161523Y-144216380D02*
X149590095Y-144216380D01*
X149875809Y-144216380D02*
X149875809Y-143216380D01*
X149780571Y-143359238D01*
X149685333Y-143454476D01*
X149590095Y-143502095D01*
%TO.C,R27*%
X136850380Y-163456857D02*
X136374190Y-163790190D01*
X136850380Y-164028285D02*
X135850380Y-164028285D01*
X135850380Y-163647333D01*
X135898000Y-163552095D01*
X135945619Y-163504476D01*
X136040857Y-163456857D01*
X136183714Y-163456857D01*
X136278952Y-163504476D01*
X136326571Y-163552095D01*
X136374190Y-163647333D01*
X136374190Y-164028285D01*
X135945619Y-163075904D02*
X135898000Y-163028285D01*
X135850380Y-162933047D01*
X135850380Y-162694952D01*
X135898000Y-162599714D01*
X135945619Y-162552095D01*
X136040857Y-162504476D01*
X136136095Y-162504476D01*
X136278952Y-162552095D01*
X136850380Y-163123523D01*
X136850380Y-162504476D01*
X135850380Y-162171142D02*
X135850380Y-161504476D01*
X136850380Y-161933047D01*
%TO.C,R26*%
X138628380Y-163456857D02*
X138152190Y-163790190D01*
X138628380Y-164028285D02*
X137628380Y-164028285D01*
X137628380Y-163647333D01*
X137676000Y-163552095D01*
X137723619Y-163504476D01*
X137818857Y-163456857D01*
X137961714Y-163456857D01*
X138056952Y-163504476D01*
X138104571Y-163552095D01*
X138152190Y-163647333D01*
X138152190Y-164028285D01*
X137723619Y-163075904D02*
X137676000Y-163028285D01*
X137628380Y-162933047D01*
X137628380Y-162694952D01*
X137676000Y-162599714D01*
X137723619Y-162552095D01*
X137818857Y-162504476D01*
X137914095Y-162504476D01*
X138056952Y-162552095D01*
X138628380Y-163123523D01*
X138628380Y-162504476D01*
X137628380Y-161647333D02*
X137628380Y-161837809D01*
X137676000Y-161933047D01*
X137723619Y-161980666D01*
X137866476Y-162075904D01*
X138056952Y-162123523D01*
X138437904Y-162123523D01*
X138533142Y-162075904D01*
X138580761Y-162028285D01*
X138628380Y-161933047D01*
X138628380Y-161742571D01*
X138580761Y-161647333D01*
X138533142Y-161599714D01*
X138437904Y-161552095D01*
X138199809Y-161552095D01*
X138104571Y-161599714D01*
X138056952Y-161647333D01*
X138009333Y-161742571D01*
X138009333Y-161933047D01*
X138056952Y-162028285D01*
X138104571Y-162075904D01*
X138199809Y-162123523D01*
%TO.C,R25*%
X189479180Y-150401257D02*
X189002990Y-150734590D01*
X189479180Y-150972685D02*
X188479180Y-150972685D01*
X188479180Y-150591733D01*
X188526800Y-150496495D01*
X188574419Y-150448876D01*
X188669657Y-150401257D01*
X188812514Y-150401257D01*
X188907752Y-150448876D01*
X188955371Y-150496495D01*
X189002990Y-150591733D01*
X189002990Y-150972685D01*
X188574419Y-150020304D02*
X188526800Y-149972685D01*
X188479180Y-149877447D01*
X188479180Y-149639352D01*
X188526800Y-149544114D01*
X188574419Y-149496495D01*
X188669657Y-149448876D01*
X188764895Y-149448876D01*
X188907752Y-149496495D01*
X189479180Y-150067923D01*
X189479180Y-149448876D01*
X188479180Y-148544114D02*
X188479180Y-149020304D01*
X188955371Y-149067923D01*
X188907752Y-149020304D01*
X188860133Y-148925066D01*
X188860133Y-148686971D01*
X188907752Y-148591733D01*
X188955371Y-148544114D01*
X189050609Y-148496495D01*
X189288704Y-148496495D01*
X189383942Y-148544114D01*
X189431561Y-148591733D01*
X189479180Y-148686971D01*
X189479180Y-148925066D01*
X189431561Y-149020304D01*
X189383942Y-149067923D01*
%TO.C,R23*%
X184747180Y-150401257D02*
X184270990Y-150734590D01*
X184747180Y-150972685D02*
X183747180Y-150972685D01*
X183747180Y-150591733D01*
X183794800Y-150496495D01*
X183842419Y-150448876D01*
X183937657Y-150401257D01*
X184080514Y-150401257D01*
X184175752Y-150448876D01*
X184223371Y-150496495D01*
X184270990Y-150591733D01*
X184270990Y-150972685D01*
X183842419Y-150020304D02*
X183794800Y-149972685D01*
X183747180Y-149877447D01*
X183747180Y-149639352D01*
X183794800Y-149544114D01*
X183842419Y-149496495D01*
X183937657Y-149448876D01*
X184032895Y-149448876D01*
X184175752Y-149496495D01*
X184747180Y-150067923D01*
X184747180Y-149448876D01*
X183747180Y-149115542D02*
X183747180Y-148496495D01*
X184128133Y-148829828D01*
X184128133Y-148686971D01*
X184175752Y-148591733D01*
X184223371Y-148544114D01*
X184318609Y-148496495D01*
X184556704Y-148496495D01*
X184651942Y-148544114D01*
X184699561Y-148591733D01*
X184747180Y-148686971D01*
X184747180Y-148972685D01*
X184699561Y-149067923D01*
X184651942Y-149115542D01*
%TO.C,R22*%
X165595549Y-162171312D02*
X165696564Y-161598893D01*
X165191488Y-161767251D02*
X165898595Y-161060145D01*
X166167969Y-161329519D01*
X166201641Y-161430534D01*
X166201641Y-161497877D01*
X166167969Y-161598893D01*
X166066954Y-161699908D01*
X165965938Y-161733580D01*
X165898595Y-161733580D01*
X165797580Y-161699908D01*
X165528206Y-161430534D01*
X166504687Y-161800923D02*
X166572030Y-161800923D01*
X166673045Y-161834595D01*
X166841404Y-162002954D01*
X166875076Y-162103969D01*
X166875076Y-162171312D01*
X166841404Y-162272328D01*
X166774061Y-162339671D01*
X166639374Y-162407015D01*
X165831251Y-162407015D01*
X166268984Y-162844748D01*
X167178122Y-162474358D02*
X167245465Y-162474358D01*
X167346480Y-162508030D01*
X167514839Y-162676389D01*
X167548511Y-162777404D01*
X167548511Y-162844748D01*
X167514839Y-162945763D01*
X167447496Y-163013106D01*
X167312809Y-163080450D01*
X166504687Y-163080450D01*
X166942419Y-163518183D01*
%TO.C,R21*%
X164325549Y-163441312D02*
X164426564Y-162868893D01*
X163921488Y-163037251D02*
X164628595Y-162330145D01*
X164897969Y-162599519D01*
X164931641Y-162700534D01*
X164931641Y-162767877D01*
X164897969Y-162868893D01*
X164796954Y-162969908D01*
X164695938Y-163003580D01*
X164628595Y-163003580D01*
X164527580Y-162969908D01*
X164258206Y-162700534D01*
X165234687Y-163070923D02*
X165302030Y-163070923D01*
X165403045Y-163104595D01*
X165571404Y-163272954D01*
X165605076Y-163373969D01*
X165605076Y-163441312D01*
X165571404Y-163542328D01*
X165504061Y-163609671D01*
X165369374Y-163677015D01*
X164561251Y-163677015D01*
X164998984Y-164114748D01*
X165672419Y-164788183D02*
X165268358Y-164384122D01*
X165470389Y-164586152D02*
X166177496Y-163879045D01*
X166009137Y-163912717D01*
X165874450Y-163912717D01*
X165773435Y-163879045D01*
%TO.C,R20*%
X150312380Y-154058857D02*
X149836190Y-154392190D01*
X150312380Y-154630285D02*
X149312380Y-154630285D01*
X149312380Y-154249333D01*
X149360000Y-154154095D01*
X149407619Y-154106476D01*
X149502857Y-154058857D01*
X149645714Y-154058857D01*
X149740952Y-154106476D01*
X149788571Y-154154095D01*
X149836190Y-154249333D01*
X149836190Y-154630285D01*
X149407619Y-153677904D02*
X149360000Y-153630285D01*
X149312380Y-153535047D01*
X149312380Y-153296952D01*
X149360000Y-153201714D01*
X149407619Y-153154095D01*
X149502857Y-153106476D01*
X149598095Y-153106476D01*
X149740952Y-153154095D01*
X150312380Y-153725523D01*
X150312380Y-153106476D01*
X149312380Y-152487428D02*
X149312380Y-152392190D01*
X149360000Y-152296952D01*
X149407619Y-152249333D01*
X149502857Y-152201714D01*
X149693333Y-152154095D01*
X149931428Y-152154095D01*
X150121904Y-152201714D01*
X150217142Y-152249333D01*
X150264761Y-152296952D01*
X150312380Y-152392190D01*
X150312380Y-152487428D01*
X150264761Y-152582666D01*
X150217142Y-152630285D01*
X150121904Y-152677904D01*
X149931428Y-152725523D01*
X149693333Y-152725523D01*
X149502857Y-152677904D01*
X149407619Y-152630285D01*
X149360000Y-152582666D01*
X149312380Y-152487428D01*
%TO.C,R19*%
X158869142Y-170030380D02*
X158535809Y-169554190D01*
X158297714Y-170030380D02*
X158297714Y-169030380D01*
X158678666Y-169030380D01*
X158773904Y-169078000D01*
X158821523Y-169125619D01*
X158869142Y-169220857D01*
X158869142Y-169363714D01*
X158821523Y-169458952D01*
X158773904Y-169506571D01*
X158678666Y-169554190D01*
X158297714Y-169554190D01*
X159821523Y-170030380D02*
X159250095Y-170030380D01*
X159535809Y-170030380D02*
X159535809Y-169030380D01*
X159440571Y-169173238D01*
X159345333Y-169268476D01*
X159250095Y-169316095D01*
X160297714Y-170030380D02*
X160488190Y-170030380D01*
X160583428Y-169982761D01*
X160631047Y-169935142D01*
X160726285Y-169792285D01*
X160773904Y-169601809D01*
X160773904Y-169220857D01*
X160726285Y-169125619D01*
X160678666Y-169078000D01*
X160583428Y-169030380D01*
X160392952Y-169030380D01*
X160297714Y-169078000D01*
X160250095Y-169125619D01*
X160202476Y-169220857D01*
X160202476Y-169458952D01*
X160250095Y-169554190D01*
X160297714Y-169601809D01*
X160392952Y-169649428D01*
X160583428Y-169649428D01*
X160678666Y-169601809D01*
X160726285Y-169554190D01*
X160773904Y-169458952D01*
%TO.C,R18*%
X158869142Y-162598380D02*
X158535809Y-162122190D01*
X158297714Y-162598380D02*
X158297714Y-161598380D01*
X158678666Y-161598380D01*
X158773904Y-161646000D01*
X158821523Y-161693619D01*
X158869142Y-161788857D01*
X158869142Y-161931714D01*
X158821523Y-162026952D01*
X158773904Y-162074571D01*
X158678666Y-162122190D01*
X158297714Y-162122190D01*
X159821523Y-162598380D02*
X159250095Y-162598380D01*
X159535809Y-162598380D02*
X159535809Y-161598380D01*
X159440571Y-161741238D01*
X159345333Y-161836476D01*
X159250095Y-161884095D01*
X160392952Y-162026952D02*
X160297714Y-161979333D01*
X160250095Y-161931714D01*
X160202476Y-161836476D01*
X160202476Y-161788857D01*
X160250095Y-161693619D01*
X160297714Y-161646000D01*
X160392952Y-161598380D01*
X160583428Y-161598380D01*
X160678666Y-161646000D01*
X160726285Y-161693619D01*
X160773904Y-161788857D01*
X160773904Y-161836476D01*
X160726285Y-161931714D01*
X160678666Y-161979333D01*
X160583428Y-162026952D01*
X160392952Y-162026952D01*
X160297714Y-162074571D01*
X160250095Y-162122190D01*
X160202476Y-162217428D01*
X160202476Y-162407904D01*
X160250095Y-162503142D01*
X160297714Y-162550761D01*
X160392952Y-162598380D01*
X160583428Y-162598380D01*
X160678666Y-162550761D01*
X160726285Y-162503142D01*
X160773904Y-162407904D01*
X160773904Y-162217428D01*
X160726285Y-162122190D01*
X160678666Y-162074571D01*
X160583428Y-162026952D01*
%TO.C,R17*%
X166988810Y-161024573D02*
X167089825Y-160452154D01*
X166584749Y-160620512D02*
X167291856Y-159913406D01*
X167561230Y-160182780D01*
X167594902Y-160283795D01*
X167594902Y-160351138D01*
X167561230Y-160452154D01*
X167460215Y-160553169D01*
X167359199Y-160586841D01*
X167291856Y-160586841D01*
X167190841Y-160553169D01*
X166921467Y-160283795D01*
X167662245Y-161698009D02*
X167258184Y-161293948D01*
X167460215Y-161495978D02*
X168167322Y-160788871D01*
X167998963Y-160822543D01*
X167864276Y-160822543D01*
X167763261Y-160788871D01*
X168605054Y-161226604D02*
X169076459Y-161698009D01*
X168066306Y-162102070D01*
%TO.C,R16*%
X155567142Y-170124380D02*
X155233809Y-169648190D01*
X154995714Y-170124380D02*
X154995714Y-169124380D01*
X155376666Y-169124380D01*
X155471904Y-169172000D01*
X155519523Y-169219619D01*
X155567142Y-169314857D01*
X155567142Y-169457714D01*
X155519523Y-169552952D01*
X155471904Y-169600571D01*
X155376666Y-169648190D01*
X154995714Y-169648190D01*
X156519523Y-170124380D02*
X155948095Y-170124380D01*
X156233809Y-170124380D02*
X156233809Y-169124380D01*
X156138571Y-169267238D01*
X156043333Y-169362476D01*
X155948095Y-169410095D01*
X157376666Y-169124380D02*
X157186190Y-169124380D01*
X157090952Y-169172000D01*
X157043333Y-169219619D01*
X156948095Y-169362476D01*
X156900476Y-169552952D01*
X156900476Y-169933904D01*
X156948095Y-170029142D01*
X156995714Y-170076761D01*
X157090952Y-170124380D01*
X157281428Y-170124380D01*
X157376666Y-170076761D01*
X157424285Y-170029142D01*
X157471904Y-169933904D01*
X157471904Y-169695809D01*
X157424285Y-169600571D01*
X157376666Y-169552952D01*
X157281428Y-169505333D01*
X157090952Y-169505333D01*
X156995714Y-169552952D01*
X156948095Y-169600571D01*
X156900476Y-169695809D01*
%TO.C,R15*%
X155567142Y-162504380D02*
X155233809Y-162028190D01*
X154995714Y-162504380D02*
X154995714Y-161504380D01*
X155376666Y-161504380D01*
X155471904Y-161552000D01*
X155519523Y-161599619D01*
X155567142Y-161694857D01*
X155567142Y-161837714D01*
X155519523Y-161932952D01*
X155471904Y-161980571D01*
X155376666Y-162028190D01*
X154995714Y-162028190D01*
X156519523Y-162504380D02*
X155948095Y-162504380D01*
X156233809Y-162504380D02*
X156233809Y-161504380D01*
X156138571Y-161647238D01*
X156043333Y-161742476D01*
X155948095Y-161790095D01*
X157424285Y-161504380D02*
X156948095Y-161504380D01*
X156900476Y-161980571D01*
X156948095Y-161932952D01*
X157043333Y-161885333D01*
X157281428Y-161885333D01*
X157376666Y-161932952D01*
X157424285Y-161980571D01*
X157471904Y-162075809D01*
X157471904Y-162313904D01*
X157424285Y-162409142D01*
X157376666Y-162456761D01*
X157281428Y-162504380D01*
X157043333Y-162504380D01*
X156948095Y-162456761D01*
X156900476Y-162409142D01*
%TO.C,R14*%
X163817549Y-155567312D02*
X163918564Y-154994893D01*
X163413488Y-155163251D02*
X164120595Y-154456145D01*
X164389969Y-154725519D01*
X164423641Y-154826534D01*
X164423641Y-154893877D01*
X164389969Y-154994893D01*
X164288954Y-155095908D01*
X164187938Y-155129580D01*
X164120595Y-155129580D01*
X164019580Y-155095908D01*
X163750206Y-154826534D01*
X164490984Y-156240748D02*
X164086923Y-155836687D01*
X164288954Y-156038717D02*
X164996061Y-155331610D01*
X164827702Y-155365282D01*
X164693015Y-155365282D01*
X164592000Y-155331610D01*
X165568480Y-156375435D02*
X165097076Y-156846839D01*
X165669496Y-155937702D02*
X164996061Y-156274419D01*
X165433793Y-156712152D01*
%TO.C,R13*%
X169659549Y-153789312D02*
X169760564Y-153216893D01*
X169255488Y-153385251D02*
X169962595Y-152678145D01*
X170231969Y-152947519D01*
X170265641Y-153048534D01*
X170265641Y-153115877D01*
X170231969Y-153216893D01*
X170130954Y-153317908D01*
X170029938Y-153351580D01*
X169962595Y-153351580D01*
X169861580Y-153317908D01*
X169592206Y-153048534D01*
X170332984Y-154462748D02*
X169928923Y-154058687D01*
X170130954Y-154260717D02*
X170838061Y-153553610D01*
X170669702Y-153587282D01*
X170535015Y-153587282D01*
X170434000Y-153553610D01*
X171275793Y-153991343D02*
X171713526Y-154429076D01*
X171208450Y-154462748D01*
X171309465Y-154563763D01*
X171343137Y-154664778D01*
X171343137Y-154732122D01*
X171309465Y-154833137D01*
X171141106Y-155001496D01*
X171040091Y-155035167D01*
X170972748Y-155035167D01*
X170871732Y-155001496D01*
X170669702Y-154799465D01*
X170636030Y-154698450D01*
X170636030Y-154631106D01*
%TO.C,R12*%
X187317142Y-161328380D02*
X186983809Y-160852190D01*
X186745714Y-161328380D02*
X186745714Y-160328380D01*
X187126666Y-160328380D01*
X187221904Y-160376000D01*
X187269523Y-160423619D01*
X187317142Y-160518857D01*
X187317142Y-160661714D01*
X187269523Y-160756952D01*
X187221904Y-160804571D01*
X187126666Y-160852190D01*
X186745714Y-160852190D01*
X188269523Y-161328380D02*
X187698095Y-161328380D01*
X187983809Y-161328380D02*
X187983809Y-160328380D01*
X187888571Y-160471238D01*
X187793333Y-160566476D01*
X187698095Y-160614095D01*
X188650476Y-160423619D02*
X188698095Y-160376000D01*
X188793333Y-160328380D01*
X189031428Y-160328380D01*
X189126666Y-160376000D01*
X189174285Y-160423619D01*
X189221904Y-160518857D01*
X189221904Y-160614095D01*
X189174285Y-160756952D01*
X188602857Y-161328380D01*
X189221904Y-161328380D01*
%TO.C,R11*%
X184015142Y-161234380D02*
X183681809Y-160758190D01*
X183443714Y-161234380D02*
X183443714Y-160234380D01*
X183824666Y-160234380D01*
X183919904Y-160282000D01*
X183967523Y-160329619D01*
X184015142Y-160424857D01*
X184015142Y-160567714D01*
X183967523Y-160662952D01*
X183919904Y-160710571D01*
X183824666Y-160758190D01*
X183443714Y-160758190D01*
X184967523Y-161234380D02*
X184396095Y-161234380D01*
X184681809Y-161234380D02*
X184681809Y-160234380D01*
X184586571Y-160377238D01*
X184491333Y-160472476D01*
X184396095Y-160520095D01*
X185919904Y-161234380D02*
X185348476Y-161234380D01*
X185634190Y-161234380D02*
X185634190Y-160234380D01*
X185538952Y-160377238D01*
X185443714Y-160472476D01*
X185348476Y-160520095D01*
%TO.C,R10*%
X173347142Y-161328380D02*
X173013809Y-160852190D01*
X172775714Y-161328380D02*
X172775714Y-160328380D01*
X173156666Y-160328380D01*
X173251904Y-160376000D01*
X173299523Y-160423619D01*
X173347142Y-160518857D01*
X173347142Y-160661714D01*
X173299523Y-160756952D01*
X173251904Y-160804571D01*
X173156666Y-160852190D01*
X172775714Y-160852190D01*
X174299523Y-161328380D02*
X173728095Y-161328380D01*
X174013809Y-161328380D02*
X174013809Y-160328380D01*
X173918571Y-160471238D01*
X173823333Y-160566476D01*
X173728095Y-160614095D01*
X174918571Y-160328380D02*
X175013809Y-160328380D01*
X175109047Y-160376000D01*
X175156666Y-160423619D01*
X175204285Y-160518857D01*
X175251904Y-160709333D01*
X175251904Y-160947428D01*
X175204285Y-161137904D01*
X175156666Y-161233142D01*
X175109047Y-161280761D01*
X175013809Y-161328380D01*
X174918571Y-161328380D01*
X174823333Y-161280761D01*
X174775714Y-161233142D01*
X174728095Y-161137904D01*
X174680476Y-160947428D01*
X174680476Y-160709333D01*
X174728095Y-160518857D01*
X174775714Y-160423619D01*
X174823333Y-160376000D01*
X174918571Y-160328380D01*
%TO.C,R9*%
X143089333Y-156154380D02*
X142756000Y-155678190D01*
X142517904Y-156154380D02*
X142517904Y-155154380D01*
X142898857Y-155154380D01*
X142994095Y-155202000D01*
X143041714Y-155249619D01*
X143089333Y-155344857D01*
X143089333Y-155487714D01*
X143041714Y-155582952D01*
X142994095Y-155630571D01*
X142898857Y-155678190D01*
X142517904Y-155678190D01*
X143565523Y-156154380D02*
X143756000Y-156154380D01*
X143851238Y-156106761D01*
X143898857Y-156059142D01*
X143994095Y-155916285D01*
X144041714Y-155725809D01*
X144041714Y-155344857D01*
X143994095Y-155249619D01*
X143946476Y-155202000D01*
X143851238Y-155154380D01*
X143660761Y-155154380D01*
X143565523Y-155202000D01*
X143517904Y-155249619D01*
X143470285Y-155344857D01*
X143470285Y-155582952D01*
X143517904Y-155678190D01*
X143565523Y-155725809D01*
X143660761Y-155773428D01*
X143851238Y-155773428D01*
X143946476Y-155725809D01*
X143994095Y-155678190D01*
X144041714Y-155582952D01*
%TO.C,R8*%
X170521333Y-161488380D02*
X170188000Y-161012190D01*
X169949904Y-161488380D02*
X169949904Y-160488380D01*
X170330857Y-160488380D01*
X170426095Y-160536000D01*
X170473714Y-160583619D01*
X170521333Y-160678857D01*
X170521333Y-160821714D01*
X170473714Y-160916952D01*
X170426095Y-160964571D01*
X170330857Y-161012190D01*
X169949904Y-161012190D01*
X171092761Y-160916952D02*
X170997523Y-160869333D01*
X170949904Y-160821714D01*
X170902285Y-160726476D01*
X170902285Y-160678857D01*
X170949904Y-160583619D01*
X170997523Y-160536000D01*
X171092761Y-160488380D01*
X171283238Y-160488380D01*
X171378476Y-160536000D01*
X171426095Y-160583619D01*
X171473714Y-160678857D01*
X171473714Y-160726476D01*
X171426095Y-160821714D01*
X171378476Y-160869333D01*
X171283238Y-160916952D01*
X171092761Y-160916952D01*
X170997523Y-160964571D01*
X170949904Y-161012190D01*
X170902285Y-161107428D01*
X170902285Y-161297904D01*
X170949904Y-161393142D01*
X170997523Y-161440761D01*
X171092761Y-161488380D01*
X171283238Y-161488380D01*
X171378476Y-161440761D01*
X171426095Y-161393142D01*
X171473714Y-161297904D01*
X171473714Y-161107428D01*
X171426095Y-161012190D01*
X171378476Y-160964571D01*
X171283238Y-160916952D01*
%TO.C,R7*%
X145740380Y-164758666D02*
X145264190Y-165092000D01*
X145740380Y-165330095D02*
X144740380Y-165330095D01*
X144740380Y-164949142D01*
X144788000Y-164853904D01*
X144835619Y-164806285D01*
X144930857Y-164758666D01*
X145073714Y-164758666D01*
X145168952Y-164806285D01*
X145216571Y-164853904D01*
X145264190Y-164949142D01*
X145264190Y-165330095D01*
X144740380Y-164425333D02*
X144740380Y-163758666D01*
X145740380Y-164187238D01*
%TO.C,R6*%
X148694380Y-162218666D02*
X148218190Y-162552000D01*
X148694380Y-162790095D02*
X147694380Y-162790095D01*
X147694380Y-162409142D01*
X147742000Y-162313904D01*
X147789619Y-162266285D01*
X147884857Y-162218666D01*
X148027714Y-162218666D01*
X148122952Y-162266285D01*
X148170571Y-162313904D01*
X148218190Y-162409142D01*
X148218190Y-162790095D01*
X147694380Y-161361523D02*
X147694380Y-161552000D01*
X147742000Y-161647238D01*
X147789619Y-161694857D01*
X147932476Y-161790095D01*
X148122952Y-161837714D01*
X148503904Y-161837714D01*
X148599142Y-161790095D01*
X148646761Y-161742476D01*
X148694380Y-161647238D01*
X148694380Y-161456761D01*
X148646761Y-161361523D01*
X148599142Y-161313904D01*
X148503904Y-161266285D01*
X148265809Y-161266285D01*
X148170571Y-161313904D01*
X148122952Y-161361523D01*
X148075333Y-161456761D01*
X148075333Y-161647238D01*
X148122952Y-161742476D01*
X148170571Y-161790095D01*
X148265809Y-161837714D01*
%TO.C,R5*%
X180935333Y-161328380D02*
X180602000Y-160852190D01*
X180363904Y-161328380D02*
X180363904Y-160328380D01*
X180744857Y-160328380D01*
X180840095Y-160376000D01*
X180887714Y-160423619D01*
X180935333Y-160518857D01*
X180935333Y-160661714D01*
X180887714Y-160756952D01*
X180840095Y-160804571D01*
X180744857Y-160852190D01*
X180363904Y-160852190D01*
X181840095Y-160328380D02*
X181363904Y-160328380D01*
X181316285Y-160804571D01*
X181363904Y-160756952D01*
X181459142Y-160709333D01*
X181697238Y-160709333D01*
X181792476Y-160756952D01*
X181840095Y-160804571D01*
X181887714Y-160899809D01*
X181887714Y-161137904D01*
X181840095Y-161233142D01*
X181792476Y-161280761D01*
X181697238Y-161328380D01*
X181459142Y-161328380D01*
X181363904Y-161280761D01*
X181316285Y-161233142D01*
%TO.C,R4*%
X140190480Y-148959866D02*
X139714290Y-149293200D01*
X140190480Y-149531295D02*
X139190480Y-149531295D01*
X139190480Y-149150342D01*
X139238100Y-149055104D01*
X139285719Y-149007485D01*
X139380957Y-148959866D01*
X139523814Y-148959866D01*
X139619052Y-149007485D01*
X139666671Y-149055104D01*
X139714290Y-149150342D01*
X139714290Y-149531295D01*
X139523814Y-148102723D02*
X140190480Y-148102723D01*
X139142861Y-148340819D02*
X139857147Y-148578914D01*
X139857147Y-147959866D01*
%TO.C,R3*%
X177887333Y-161234380D02*
X177554000Y-160758190D01*
X177315904Y-161234380D02*
X177315904Y-160234380D01*
X177696857Y-160234380D01*
X177792095Y-160282000D01*
X177839714Y-160329619D01*
X177887333Y-160424857D01*
X177887333Y-160567714D01*
X177839714Y-160662952D01*
X177792095Y-160710571D01*
X177696857Y-160758190D01*
X177315904Y-160758190D01*
X178220666Y-160234380D02*
X178839714Y-160234380D01*
X178506380Y-160615333D01*
X178649238Y-160615333D01*
X178744476Y-160662952D01*
X178792095Y-160710571D01*
X178839714Y-160805809D01*
X178839714Y-161043904D01*
X178792095Y-161139142D01*
X178744476Y-161186761D01*
X178649238Y-161234380D01*
X178363523Y-161234380D01*
X178268285Y-161186761D01*
X178220666Y-161139142D01*
%TO.C,R1*%
X135458480Y-148959866D02*
X134982290Y-149293200D01*
X135458480Y-149531295D02*
X134458480Y-149531295D01*
X134458480Y-149150342D01*
X134506100Y-149055104D01*
X134553719Y-149007485D01*
X134648957Y-148959866D01*
X134791814Y-148959866D01*
X134887052Y-149007485D01*
X134934671Y-149055104D01*
X134982290Y-149150342D01*
X134982290Y-149531295D01*
X135458480Y-148007485D02*
X135458480Y-148578914D01*
X135458480Y-148293200D02*
X134458480Y-148293200D01*
X134601338Y-148388438D01*
X134696576Y-148483676D01*
X134744195Y-148578914D01*
%TO.C,Q3*%
X184816761Y-168187619D02*
X184721523Y-168140000D01*
X184626285Y-168044761D01*
X184483428Y-167901904D01*
X184388190Y-167854285D01*
X184292952Y-167854285D01*
X184340571Y-168092380D02*
X184245333Y-168044761D01*
X184150095Y-167949523D01*
X184102476Y-167759047D01*
X184102476Y-167425714D01*
X184150095Y-167235238D01*
X184245333Y-167140000D01*
X184340571Y-167092380D01*
X184531047Y-167092380D01*
X184626285Y-167140000D01*
X184721523Y-167235238D01*
X184769142Y-167425714D01*
X184769142Y-167759047D01*
X184721523Y-167949523D01*
X184626285Y-168044761D01*
X184531047Y-168092380D01*
X184340571Y-168092380D01*
X185102476Y-167092380D02*
X185721523Y-167092380D01*
X185388190Y-167473333D01*
X185531047Y-167473333D01*
X185626285Y-167520952D01*
X185673904Y-167568571D01*
X185721523Y-167663809D01*
X185721523Y-167901904D01*
X185673904Y-167997142D01*
X185626285Y-168044761D01*
X185531047Y-168092380D01*
X185245333Y-168092380D01*
X185150095Y-168044761D01*
X185102476Y-167997142D01*
%TO.C,Q2*%
X170846761Y-168441619D02*
X170751523Y-168394000D01*
X170656285Y-168298761D01*
X170513428Y-168155904D01*
X170418190Y-168108285D01*
X170322952Y-168108285D01*
X170370571Y-168346380D02*
X170275333Y-168298761D01*
X170180095Y-168203523D01*
X170132476Y-168013047D01*
X170132476Y-167679714D01*
X170180095Y-167489238D01*
X170275333Y-167394000D01*
X170370571Y-167346380D01*
X170561047Y-167346380D01*
X170656285Y-167394000D01*
X170751523Y-167489238D01*
X170799142Y-167679714D01*
X170799142Y-168013047D01*
X170751523Y-168203523D01*
X170656285Y-168298761D01*
X170561047Y-168346380D01*
X170370571Y-168346380D01*
X171180095Y-167441619D02*
X171227714Y-167394000D01*
X171322952Y-167346380D01*
X171561047Y-167346380D01*
X171656285Y-167394000D01*
X171703904Y-167441619D01*
X171751523Y-167536857D01*
X171751523Y-167632095D01*
X171703904Y-167774952D01*
X171132476Y-168346380D01*
X171751523Y-168346380D01*
%TO.C,Q1*%
X177704761Y-168441619D02*
X177609523Y-168394000D01*
X177514285Y-168298761D01*
X177371428Y-168155904D01*
X177276190Y-168108285D01*
X177180952Y-168108285D01*
X177228571Y-168346380D02*
X177133333Y-168298761D01*
X177038095Y-168203523D01*
X176990476Y-168013047D01*
X176990476Y-167679714D01*
X177038095Y-167489238D01*
X177133333Y-167394000D01*
X177228571Y-167346380D01*
X177419047Y-167346380D01*
X177514285Y-167394000D01*
X177609523Y-167489238D01*
X177657142Y-167679714D01*
X177657142Y-168013047D01*
X177609523Y-168203523D01*
X177514285Y-168298761D01*
X177419047Y-168346380D01*
X177228571Y-168346380D01*
X178609523Y-168346380D02*
X178038095Y-168346380D01*
X178323809Y-168346380D02*
X178323809Y-167346380D01*
X178228571Y-167489238D01*
X178133333Y-167584476D01*
X178038095Y-167632095D01*
%TO.C,J2*%
X134799771Y-160599380D02*
X134799771Y-159599380D01*
X135228342Y-159694619D02*
X135275961Y-159647000D01*
X135371200Y-159599380D01*
X135609295Y-159599380D01*
X135704533Y-159647000D01*
X135752152Y-159694619D01*
X135799771Y-159789857D01*
X135799771Y-159885095D01*
X135752152Y-160027952D01*
X135180723Y-160599380D01*
X135799771Y-160599380D01*
X136799771Y-160504142D02*
X136752152Y-160551761D01*
X136609295Y-160599380D01*
X136514057Y-160599380D01*
X136371200Y-160551761D01*
X136275961Y-160456523D01*
X136228342Y-160361285D01*
X136180723Y-160170809D01*
X136180723Y-160027952D01*
X136228342Y-159837476D01*
X136275961Y-159742238D01*
X136371200Y-159647000D01*
X136514057Y-159599380D01*
X136609295Y-159599380D01*
X136752152Y-159647000D01*
X136799771Y-159694619D01*
X137990247Y-160599380D02*
X137990247Y-159599380D01*
X137990247Y-159980333D02*
X138085485Y-159932714D01*
X138275961Y-159932714D01*
X138371200Y-159980333D01*
X138418819Y-160027952D01*
X138466438Y-160123190D01*
X138466438Y-160408904D01*
X138418819Y-160504142D01*
X138371200Y-160551761D01*
X138275961Y-160599380D01*
X138085485Y-160599380D01*
X137990247Y-160551761D01*
X139323580Y-159932714D02*
X139323580Y-160599380D01*
X138895009Y-159932714D02*
X138895009Y-160456523D01*
X138942628Y-160551761D01*
X139037866Y-160599380D01*
X139180723Y-160599380D01*
X139275961Y-160551761D01*
X139323580Y-160504142D01*
X139752152Y-160551761D02*
X139847390Y-160599380D01*
X140037866Y-160599380D01*
X140133104Y-160551761D01*
X140180723Y-160456523D01*
X140180723Y-160408904D01*
X140133104Y-160313666D01*
X140037866Y-160266047D01*
X139895009Y-160266047D01*
X139799771Y-160218428D01*
X139752152Y-160123190D01*
X139752152Y-160075571D01*
X139799771Y-159980333D01*
X139895009Y-159932714D01*
X140037866Y-159932714D01*
X140133104Y-159980333D01*
X140561676Y-160551761D02*
X140656914Y-160599380D01*
X140847390Y-160599380D01*
X140942628Y-160551761D01*
X140990247Y-160456523D01*
X140990247Y-160408904D01*
X140942628Y-160313666D01*
X140847390Y-160266047D01*
X140704533Y-160266047D01*
X140609295Y-160218428D01*
X140561676Y-160123190D01*
X140561676Y-160075571D01*
X140609295Y-159980333D01*
X140704533Y-159932714D01*
X140847390Y-159932714D01*
X140942628Y-159980333D01*
%TO.C,D4*%
X188666380Y-170156095D02*
X187666380Y-170156095D01*
X187666380Y-169918000D01*
X187714000Y-169775142D01*
X187809238Y-169679904D01*
X187904476Y-169632285D01*
X188094952Y-169584666D01*
X188237809Y-169584666D01*
X188428285Y-169632285D01*
X188523523Y-169679904D01*
X188618761Y-169775142D01*
X188666380Y-169918000D01*
X188666380Y-170156095D01*
X187999714Y-168727523D02*
X188666380Y-168727523D01*
X187618761Y-168965619D02*
X188333047Y-169203714D01*
X188333047Y-168584666D01*
%TO.C,D3*%
X174696380Y-169902095D02*
X173696380Y-169902095D01*
X173696380Y-169664000D01*
X173744000Y-169521142D01*
X173839238Y-169425904D01*
X173934476Y-169378285D01*
X174124952Y-169330666D01*
X174267809Y-169330666D01*
X174458285Y-169378285D01*
X174553523Y-169425904D01*
X174648761Y-169521142D01*
X174696380Y-169664000D01*
X174696380Y-169902095D01*
X173696380Y-168997333D02*
X173696380Y-168378285D01*
X174077333Y-168711619D01*
X174077333Y-168568761D01*
X174124952Y-168473523D01*
X174172571Y-168425904D01*
X174267809Y-168378285D01*
X174505904Y-168378285D01*
X174601142Y-168425904D01*
X174648761Y-168473523D01*
X174696380Y-168568761D01*
X174696380Y-168854476D01*
X174648761Y-168949714D01*
X174601142Y-168997333D01*
%TO.C,D2*%
X148105904Y-158948380D02*
X148105904Y-157948380D01*
X148344000Y-157948380D01*
X148486857Y-157996000D01*
X148582095Y-158091238D01*
X148629714Y-158186476D01*
X148677333Y-158376952D01*
X148677333Y-158519809D01*
X148629714Y-158710285D01*
X148582095Y-158805523D01*
X148486857Y-158900761D01*
X148344000Y-158948380D01*
X148105904Y-158948380D01*
X149058285Y-158043619D02*
X149105904Y-157996000D01*
X149201142Y-157948380D01*
X149439238Y-157948380D01*
X149534476Y-157996000D01*
X149582095Y-158043619D01*
X149629714Y-158138857D01*
X149629714Y-158234095D01*
X149582095Y-158376952D01*
X149010666Y-158948380D01*
X149629714Y-158948380D01*
%TO.C,D1*%
X181808380Y-169902095D02*
X180808380Y-169902095D01*
X180808380Y-169664000D01*
X180856000Y-169521142D01*
X180951238Y-169425904D01*
X181046476Y-169378285D01*
X181236952Y-169330666D01*
X181379809Y-169330666D01*
X181570285Y-169378285D01*
X181665523Y-169425904D01*
X181760761Y-169521142D01*
X181808380Y-169664000D01*
X181808380Y-169902095D01*
X181808380Y-168378285D02*
X181808380Y-168949714D01*
X181808380Y-168664000D02*
X180808380Y-168664000D01*
X180951238Y-168759238D01*
X181046476Y-168854476D01*
X181094095Y-168949714D01*
%TO.C,C25*%
X187859942Y-158529257D02*
X187907561Y-158576876D01*
X187955180Y-158719733D01*
X187955180Y-158814971D01*
X187907561Y-158957828D01*
X187812323Y-159053066D01*
X187717085Y-159100685D01*
X187526609Y-159148304D01*
X187383752Y-159148304D01*
X187193276Y-159100685D01*
X187098038Y-159053066D01*
X187002800Y-158957828D01*
X186955180Y-158814971D01*
X186955180Y-158719733D01*
X187002800Y-158576876D01*
X187050419Y-158529257D01*
X187050419Y-158148304D02*
X187002800Y-158100685D01*
X186955180Y-158005447D01*
X186955180Y-157767352D01*
X187002800Y-157672114D01*
X187050419Y-157624495D01*
X187145657Y-157576876D01*
X187240895Y-157576876D01*
X187383752Y-157624495D01*
X187955180Y-158195923D01*
X187955180Y-157576876D01*
X186955180Y-156672114D02*
X186955180Y-157148304D01*
X187431371Y-157195923D01*
X187383752Y-157148304D01*
X187336133Y-157053066D01*
X187336133Y-156814971D01*
X187383752Y-156719733D01*
X187431371Y-156672114D01*
X187526609Y-156624495D01*
X187764704Y-156624495D01*
X187859942Y-156672114D01*
X187907561Y-156719733D01*
X187955180Y-156814971D01*
X187955180Y-157053066D01*
X187907561Y-157148304D01*
X187859942Y-157195923D01*
%TO.C,C24*%
X182795942Y-152909542D02*
X182748323Y-152957161D01*
X182605466Y-153004780D01*
X182510228Y-153004780D01*
X182367371Y-152957161D01*
X182272133Y-152861923D01*
X182224514Y-152766685D01*
X182176895Y-152576209D01*
X182176895Y-152433352D01*
X182224514Y-152242876D01*
X182272133Y-152147638D01*
X182367371Y-152052400D01*
X182510228Y-152004780D01*
X182605466Y-152004780D01*
X182748323Y-152052400D01*
X182795942Y-152100019D01*
X183176895Y-152100019D02*
X183224514Y-152052400D01*
X183319752Y-152004780D01*
X183557847Y-152004780D01*
X183653085Y-152052400D01*
X183700704Y-152100019D01*
X183748323Y-152195257D01*
X183748323Y-152290495D01*
X183700704Y-152433352D01*
X183129276Y-153004780D01*
X183748323Y-153004780D01*
X184605466Y-152338114D02*
X184605466Y-153004780D01*
X184367371Y-151957161D02*
X184129276Y-152671447D01*
X184748323Y-152671447D01*
%TO.C,C23*%
X186081942Y-158529257D02*
X186129561Y-158576876D01*
X186177180Y-158719733D01*
X186177180Y-158814971D01*
X186129561Y-158957828D01*
X186034323Y-159053066D01*
X185939085Y-159100685D01*
X185748609Y-159148304D01*
X185605752Y-159148304D01*
X185415276Y-159100685D01*
X185320038Y-159053066D01*
X185224800Y-158957828D01*
X185177180Y-158814971D01*
X185177180Y-158719733D01*
X185224800Y-158576876D01*
X185272419Y-158529257D01*
X185272419Y-158148304D02*
X185224800Y-158100685D01*
X185177180Y-158005447D01*
X185177180Y-157767352D01*
X185224800Y-157672114D01*
X185272419Y-157624495D01*
X185367657Y-157576876D01*
X185462895Y-157576876D01*
X185605752Y-157624495D01*
X186177180Y-158195923D01*
X186177180Y-157576876D01*
X185177180Y-157243542D02*
X185177180Y-156624495D01*
X185558133Y-156957828D01*
X185558133Y-156814971D01*
X185605752Y-156719733D01*
X185653371Y-156672114D01*
X185748609Y-156624495D01*
X185986704Y-156624495D01*
X186081942Y-156672114D01*
X186129561Y-156719733D01*
X186177180Y-156814971D01*
X186177180Y-157100685D01*
X186129561Y-157195923D01*
X186081942Y-157243542D01*
%TO.C,C22*%
X181967142Y-150248857D02*
X182014761Y-150296476D01*
X182062380Y-150439333D01*
X182062380Y-150534571D01*
X182014761Y-150677428D01*
X181919523Y-150772666D01*
X181824285Y-150820285D01*
X181633809Y-150867904D01*
X181490952Y-150867904D01*
X181300476Y-150820285D01*
X181205238Y-150772666D01*
X181110000Y-150677428D01*
X181062380Y-150534571D01*
X181062380Y-150439333D01*
X181110000Y-150296476D01*
X181157619Y-150248857D01*
X181157619Y-149867904D02*
X181110000Y-149820285D01*
X181062380Y-149725047D01*
X181062380Y-149486952D01*
X181110000Y-149391714D01*
X181157619Y-149344095D01*
X181252857Y-149296476D01*
X181348095Y-149296476D01*
X181490952Y-149344095D01*
X182062380Y-149915523D01*
X182062380Y-149296476D01*
X181157619Y-148915523D02*
X181110000Y-148867904D01*
X181062380Y-148772666D01*
X181062380Y-148534571D01*
X181110000Y-148439333D01*
X181157619Y-148391714D01*
X181252857Y-148344095D01*
X181348095Y-148344095D01*
X181490952Y-148391714D01*
X182062380Y-148963142D01*
X182062380Y-148344095D01*
%TO.C,C21*%
X179681142Y-150248857D02*
X179728761Y-150296476D01*
X179776380Y-150439333D01*
X179776380Y-150534571D01*
X179728761Y-150677428D01*
X179633523Y-150772666D01*
X179538285Y-150820285D01*
X179347809Y-150867904D01*
X179204952Y-150867904D01*
X179014476Y-150820285D01*
X178919238Y-150772666D01*
X178824000Y-150677428D01*
X178776380Y-150534571D01*
X178776380Y-150439333D01*
X178824000Y-150296476D01*
X178871619Y-150248857D01*
X178871619Y-149867904D02*
X178824000Y-149820285D01*
X178776380Y-149725047D01*
X178776380Y-149486952D01*
X178824000Y-149391714D01*
X178871619Y-149344095D01*
X178966857Y-149296476D01*
X179062095Y-149296476D01*
X179204952Y-149344095D01*
X179776380Y-149915523D01*
X179776380Y-149296476D01*
X179776380Y-148344095D02*
X179776380Y-148915523D01*
X179776380Y-148629809D02*
X178776380Y-148629809D01*
X178919238Y-148725047D01*
X179014476Y-148820285D01*
X179062095Y-148915523D01*
%TO.C,C20*%
X177395142Y-150248857D02*
X177442761Y-150296476D01*
X177490380Y-150439333D01*
X177490380Y-150534571D01*
X177442761Y-150677428D01*
X177347523Y-150772666D01*
X177252285Y-150820285D01*
X177061809Y-150867904D01*
X176918952Y-150867904D01*
X176728476Y-150820285D01*
X176633238Y-150772666D01*
X176538000Y-150677428D01*
X176490380Y-150534571D01*
X176490380Y-150439333D01*
X176538000Y-150296476D01*
X176585619Y-150248857D01*
X176585619Y-149867904D02*
X176538000Y-149820285D01*
X176490380Y-149725047D01*
X176490380Y-149486952D01*
X176538000Y-149391714D01*
X176585619Y-149344095D01*
X176680857Y-149296476D01*
X176776095Y-149296476D01*
X176918952Y-149344095D01*
X177490380Y-149915523D01*
X177490380Y-149296476D01*
X176490380Y-148677428D02*
X176490380Y-148582190D01*
X176538000Y-148486952D01*
X176585619Y-148439333D01*
X176680857Y-148391714D01*
X176871333Y-148344095D01*
X177109428Y-148344095D01*
X177299904Y-148391714D01*
X177395142Y-148439333D01*
X177442761Y-148486952D01*
X177490380Y-148582190D01*
X177490380Y-148677428D01*
X177442761Y-148772666D01*
X177395142Y-148820285D01*
X177299904Y-148867904D01*
X177109428Y-148915523D01*
X176871333Y-148915523D01*
X176680857Y-148867904D01*
X176585619Y-148820285D01*
X176538000Y-148772666D01*
X176490380Y-148677428D01*
%TO.C,C19*%
X175109142Y-150248857D02*
X175156761Y-150296476D01*
X175204380Y-150439333D01*
X175204380Y-150534571D01*
X175156761Y-150677428D01*
X175061523Y-150772666D01*
X174966285Y-150820285D01*
X174775809Y-150867904D01*
X174632952Y-150867904D01*
X174442476Y-150820285D01*
X174347238Y-150772666D01*
X174252000Y-150677428D01*
X174204380Y-150534571D01*
X174204380Y-150439333D01*
X174252000Y-150296476D01*
X174299619Y-150248857D01*
X175204380Y-149296476D02*
X175204380Y-149867904D01*
X175204380Y-149582190D02*
X174204380Y-149582190D01*
X174347238Y-149677428D01*
X174442476Y-149772666D01*
X174490095Y-149867904D01*
X175204380Y-148820285D02*
X175204380Y-148629809D01*
X175156761Y-148534571D01*
X175109142Y-148486952D01*
X174966285Y-148391714D01*
X174775809Y-148344095D01*
X174394857Y-148344095D01*
X174299619Y-148391714D01*
X174252000Y-148439333D01*
X174204380Y-148534571D01*
X174204380Y-148725047D01*
X174252000Y-148820285D01*
X174299619Y-148867904D01*
X174394857Y-148915523D01*
X174632952Y-148915523D01*
X174728190Y-148867904D01*
X174775809Y-148820285D01*
X174823428Y-148725047D01*
X174823428Y-148534571D01*
X174775809Y-148439333D01*
X174728190Y-148391714D01*
X174632952Y-148344095D01*
%TO.C,C18*%
X172823142Y-150248857D02*
X172870761Y-150296476D01*
X172918380Y-150439333D01*
X172918380Y-150534571D01*
X172870761Y-150677428D01*
X172775523Y-150772666D01*
X172680285Y-150820285D01*
X172489809Y-150867904D01*
X172346952Y-150867904D01*
X172156476Y-150820285D01*
X172061238Y-150772666D01*
X171966000Y-150677428D01*
X171918380Y-150534571D01*
X171918380Y-150439333D01*
X171966000Y-150296476D01*
X172013619Y-150248857D01*
X172918380Y-149296476D02*
X172918380Y-149867904D01*
X172918380Y-149582190D02*
X171918380Y-149582190D01*
X172061238Y-149677428D01*
X172156476Y-149772666D01*
X172204095Y-149867904D01*
X172346952Y-148725047D02*
X172299333Y-148820285D01*
X172251714Y-148867904D01*
X172156476Y-148915523D01*
X172108857Y-148915523D01*
X172013619Y-148867904D01*
X171966000Y-148820285D01*
X171918380Y-148725047D01*
X171918380Y-148534571D01*
X171966000Y-148439333D01*
X172013619Y-148391714D01*
X172108857Y-148344095D01*
X172156476Y-148344095D01*
X172251714Y-148391714D01*
X172299333Y-148439333D01*
X172346952Y-148534571D01*
X172346952Y-148725047D01*
X172394571Y-148820285D01*
X172442190Y-148867904D01*
X172537428Y-148915523D01*
X172727904Y-148915523D01*
X172823142Y-148867904D01*
X172870761Y-148820285D01*
X172918380Y-148725047D01*
X172918380Y-148534571D01*
X172870761Y-148439333D01*
X172823142Y-148391714D01*
X172727904Y-148344095D01*
X172537428Y-148344095D01*
X172442190Y-148391714D01*
X172394571Y-148439333D01*
X172346952Y-148534571D01*
%TO.C,C17*%
X170283142Y-150248857D02*
X170330761Y-150296476D01*
X170378380Y-150439333D01*
X170378380Y-150534571D01*
X170330761Y-150677428D01*
X170235523Y-150772666D01*
X170140285Y-150820285D01*
X169949809Y-150867904D01*
X169806952Y-150867904D01*
X169616476Y-150820285D01*
X169521238Y-150772666D01*
X169426000Y-150677428D01*
X169378380Y-150534571D01*
X169378380Y-150439333D01*
X169426000Y-150296476D01*
X169473619Y-150248857D01*
X170378380Y-149296476D02*
X170378380Y-149867904D01*
X170378380Y-149582190D02*
X169378380Y-149582190D01*
X169521238Y-149677428D01*
X169616476Y-149772666D01*
X169664095Y-149867904D01*
X169378380Y-148963142D02*
X169378380Y-148296476D01*
X170378380Y-148725047D01*
%TO.C,C16*%
X142092142Y-152503142D02*
X142044523Y-152550761D01*
X141901666Y-152598380D01*
X141806428Y-152598380D01*
X141663571Y-152550761D01*
X141568333Y-152455523D01*
X141520714Y-152360285D01*
X141473095Y-152169809D01*
X141473095Y-152026952D01*
X141520714Y-151836476D01*
X141568333Y-151741238D01*
X141663571Y-151646000D01*
X141806428Y-151598380D01*
X141901666Y-151598380D01*
X142044523Y-151646000D01*
X142092142Y-151693619D01*
X143044523Y-152598380D02*
X142473095Y-152598380D01*
X142758809Y-152598380D02*
X142758809Y-151598380D01*
X142663571Y-151741238D01*
X142568333Y-151836476D01*
X142473095Y-151884095D01*
X143901666Y-151598380D02*
X143711190Y-151598380D01*
X143615952Y-151646000D01*
X143568333Y-151693619D01*
X143473095Y-151836476D01*
X143425476Y-152026952D01*
X143425476Y-152407904D01*
X143473095Y-152503142D01*
X143520714Y-152550761D01*
X143615952Y-152598380D01*
X143806428Y-152598380D01*
X143901666Y-152550761D01*
X143949285Y-152503142D01*
X143996904Y-152407904D01*
X143996904Y-152169809D01*
X143949285Y-152074571D01*
X143901666Y-152026952D01*
X143806428Y-151979333D01*
X143615952Y-151979333D01*
X143520714Y-152026952D01*
X143473095Y-152074571D01*
X143425476Y-152169809D01*
%TO.C,C15*%
X142105142Y-154281142D02*
X142057523Y-154328761D01*
X141914666Y-154376380D01*
X141819428Y-154376380D01*
X141676571Y-154328761D01*
X141581333Y-154233523D01*
X141533714Y-154138285D01*
X141486095Y-153947809D01*
X141486095Y-153804952D01*
X141533714Y-153614476D01*
X141581333Y-153519238D01*
X141676571Y-153424000D01*
X141819428Y-153376380D01*
X141914666Y-153376380D01*
X142057523Y-153424000D01*
X142105142Y-153471619D01*
X143057523Y-154376380D02*
X142486095Y-154376380D01*
X142771809Y-154376380D02*
X142771809Y-153376380D01*
X142676571Y-153519238D01*
X142581333Y-153614476D01*
X142486095Y-153662095D01*
X143962285Y-153376380D02*
X143486095Y-153376380D01*
X143438476Y-153852571D01*
X143486095Y-153804952D01*
X143581333Y-153757333D01*
X143819428Y-153757333D01*
X143914666Y-153804952D01*
X143962285Y-153852571D01*
X144009904Y-153947809D01*
X144009904Y-154185904D01*
X143962285Y-154281142D01*
X143914666Y-154328761D01*
X143819428Y-154376380D01*
X143581333Y-154376380D01*
X143486095Y-154328761D01*
X143438476Y-154281142D01*
%TO.C,C14*%
X162679142Y-153265142D02*
X162631523Y-153312761D01*
X162488666Y-153360380D01*
X162393428Y-153360380D01*
X162250571Y-153312761D01*
X162155333Y-153217523D01*
X162107714Y-153122285D01*
X162060095Y-152931809D01*
X162060095Y-152788952D01*
X162107714Y-152598476D01*
X162155333Y-152503238D01*
X162250571Y-152408000D01*
X162393428Y-152360380D01*
X162488666Y-152360380D01*
X162631523Y-152408000D01*
X162679142Y-152455619D01*
X163631523Y-153360380D02*
X163060095Y-153360380D01*
X163345809Y-153360380D02*
X163345809Y-152360380D01*
X163250571Y-152503238D01*
X163155333Y-152598476D01*
X163060095Y-152646095D01*
X164488666Y-152693714D02*
X164488666Y-153360380D01*
X164250571Y-152312761D02*
X164012476Y-153027047D01*
X164631523Y-153027047D01*
%TO.C,C13*%
X155313142Y-153265142D02*
X155265523Y-153312761D01*
X155122666Y-153360380D01*
X155027428Y-153360380D01*
X154884571Y-153312761D01*
X154789333Y-153217523D01*
X154741714Y-153122285D01*
X154694095Y-152931809D01*
X154694095Y-152788952D01*
X154741714Y-152598476D01*
X154789333Y-152503238D01*
X154884571Y-152408000D01*
X155027428Y-152360380D01*
X155122666Y-152360380D01*
X155265523Y-152408000D01*
X155313142Y-152455619D01*
X156265523Y-153360380D02*
X155694095Y-153360380D01*
X155979809Y-153360380D02*
X155979809Y-152360380D01*
X155884571Y-152503238D01*
X155789333Y-152598476D01*
X155694095Y-152646095D01*
X156598857Y-152360380D02*
X157217904Y-152360380D01*
X156884571Y-152741333D01*
X157027428Y-152741333D01*
X157122666Y-152788952D01*
X157170285Y-152836571D01*
X157217904Y-152931809D01*
X157217904Y-153169904D01*
X157170285Y-153265142D01*
X157122666Y-153312761D01*
X157027428Y-153360380D01*
X156741714Y-153360380D01*
X156646476Y-153312761D01*
X156598857Y-153265142D01*
%TO.C,C12*%
X172318142Y-159869142D02*
X172270523Y-159916761D01*
X172127666Y-159964380D01*
X172032428Y-159964380D01*
X171889571Y-159916761D01*
X171794333Y-159821523D01*
X171746714Y-159726285D01*
X171699095Y-159535809D01*
X171699095Y-159392952D01*
X171746714Y-159202476D01*
X171794333Y-159107238D01*
X171889571Y-159012000D01*
X172032428Y-158964380D01*
X172127666Y-158964380D01*
X172270523Y-159012000D01*
X172318142Y-159059619D01*
X173270523Y-159964380D02*
X172699095Y-159964380D01*
X172984809Y-159964380D02*
X172984809Y-158964380D01*
X172889571Y-159107238D01*
X172794333Y-159202476D01*
X172699095Y-159250095D01*
X173651476Y-159059619D02*
X173699095Y-159012000D01*
X173794333Y-158964380D01*
X174032428Y-158964380D01*
X174127666Y-159012000D01*
X174175285Y-159059619D01*
X174222904Y-159154857D01*
X174222904Y-159250095D01*
X174175285Y-159392952D01*
X173603857Y-159964380D01*
X174222904Y-159964380D01*
%TO.C,C11*%
X172012893Y-156261969D02*
X171945549Y-156261969D01*
X171810862Y-156194625D01*
X171743519Y-156127282D01*
X171676175Y-155992595D01*
X171676175Y-155857908D01*
X171709847Y-155756893D01*
X171810862Y-155588534D01*
X171911877Y-155487519D01*
X172080236Y-155386503D01*
X172181251Y-155352832D01*
X172315938Y-155352832D01*
X172450625Y-155420175D01*
X172517969Y-155487519D01*
X172585312Y-155622206D01*
X172585312Y-155689549D01*
X172618984Y-157002748D02*
X172214923Y-156598687D01*
X172416954Y-156800717D02*
X173124061Y-156093610D01*
X172955702Y-156127282D01*
X172821015Y-156127282D01*
X172720000Y-156093610D01*
X173292419Y-157676183D02*
X172888358Y-157272122D01*
X173090389Y-157474152D02*
X173797496Y-156767045D01*
X173629137Y-156800717D01*
X173494450Y-156800717D01*
X173393435Y-156767045D01*
%TO.C,C10*%
X165154893Y-154229969D02*
X165087549Y-154229969D01*
X164952862Y-154162625D01*
X164885519Y-154095282D01*
X164818175Y-153960595D01*
X164818175Y-153825908D01*
X164851847Y-153724893D01*
X164952862Y-153556534D01*
X165053877Y-153455519D01*
X165222236Y-153354503D01*
X165323251Y-153320832D01*
X165457938Y-153320832D01*
X165592625Y-153388175D01*
X165659969Y-153455519D01*
X165727312Y-153590206D01*
X165727312Y-153657549D01*
X165760984Y-154970748D02*
X165356923Y-154566687D01*
X165558954Y-154768717D02*
X166266061Y-154061610D01*
X166097702Y-154095282D01*
X165963015Y-154095282D01*
X165862000Y-154061610D01*
X166905824Y-154701374D02*
X166973167Y-154768717D01*
X167006839Y-154869732D01*
X167006839Y-154937076D01*
X166973167Y-155038091D01*
X166872152Y-155206450D01*
X166703793Y-155374809D01*
X166535435Y-155475824D01*
X166434419Y-155509496D01*
X166367076Y-155509496D01*
X166266061Y-155475824D01*
X166198717Y-155408480D01*
X166165045Y-155307465D01*
X166165045Y-155240122D01*
X166198717Y-155139106D01*
X166299732Y-154970748D01*
X166468091Y-154802389D01*
X166636450Y-154701374D01*
X166737465Y-154667702D01*
X166804809Y-154667702D01*
X166905824Y-154701374D01*
%TO.C,C9*%
X149709142Y-150026666D02*
X149756761Y-150074285D01*
X149804380Y-150217142D01*
X149804380Y-150312380D01*
X149756761Y-150455238D01*
X149661523Y-150550476D01*
X149566285Y-150598095D01*
X149375809Y-150645714D01*
X149232952Y-150645714D01*
X149042476Y-150598095D01*
X148947238Y-150550476D01*
X148852000Y-150455238D01*
X148804380Y-150312380D01*
X148804380Y-150217142D01*
X148852000Y-150074285D01*
X148899619Y-150026666D01*
X149804380Y-149550476D02*
X149804380Y-149360000D01*
X149756761Y-149264761D01*
X149709142Y-149217142D01*
X149566285Y-149121904D01*
X149375809Y-149074285D01*
X148994857Y-149074285D01*
X148899619Y-149121904D01*
X148852000Y-149169523D01*
X148804380Y-149264761D01*
X148804380Y-149455238D01*
X148852000Y-149550476D01*
X148899619Y-149598095D01*
X148994857Y-149645714D01*
X149232952Y-149645714D01*
X149328190Y-149598095D01*
X149375809Y-149550476D01*
X149423428Y-149455238D01*
X149423428Y-149264761D01*
X149375809Y-149169523D01*
X149328190Y-149121904D01*
X149232952Y-149074285D01*
%TO.C,C8*%
X147423142Y-150026666D02*
X147470761Y-150074285D01*
X147518380Y-150217142D01*
X147518380Y-150312380D01*
X147470761Y-150455238D01*
X147375523Y-150550476D01*
X147280285Y-150598095D01*
X147089809Y-150645714D01*
X146946952Y-150645714D01*
X146756476Y-150598095D01*
X146661238Y-150550476D01*
X146566000Y-150455238D01*
X146518380Y-150312380D01*
X146518380Y-150217142D01*
X146566000Y-150074285D01*
X146613619Y-150026666D01*
X146946952Y-149455238D02*
X146899333Y-149550476D01*
X146851714Y-149598095D01*
X146756476Y-149645714D01*
X146708857Y-149645714D01*
X146613619Y-149598095D01*
X146566000Y-149550476D01*
X146518380Y-149455238D01*
X146518380Y-149264761D01*
X146566000Y-149169523D01*
X146613619Y-149121904D01*
X146708857Y-149074285D01*
X146756476Y-149074285D01*
X146851714Y-149121904D01*
X146899333Y-149169523D01*
X146946952Y-149264761D01*
X146946952Y-149455238D01*
X146994571Y-149550476D01*
X147042190Y-149598095D01*
X147137428Y-149645714D01*
X147327904Y-149645714D01*
X147423142Y-149598095D01*
X147470761Y-149550476D01*
X147518380Y-149455238D01*
X147518380Y-149264761D01*
X147470761Y-149169523D01*
X147423142Y-149121904D01*
X147327904Y-149074285D01*
X147137428Y-149074285D01*
X147042190Y-149121904D01*
X146994571Y-149169523D01*
X146946952Y-149264761D01*
%TO.C,C7*%
X142183142Y-162218666D02*
X142230761Y-162266285D01*
X142278380Y-162409142D01*
X142278380Y-162504380D01*
X142230761Y-162647238D01*
X142135523Y-162742476D01*
X142040285Y-162790095D01*
X141849809Y-162837714D01*
X141706952Y-162837714D01*
X141516476Y-162790095D01*
X141421238Y-162742476D01*
X141326000Y-162647238D01*
X141278380Y-162504380D01*
X141278380Y-162409142D01*
X141326000Y-162266285D01*
X141373619Y-162218666D01*
X141278380Y-161885333D02*
X141278380Y-161218666D01*
X142278380Y-161647238D01*
%TO.C,C6*%
X145137142Y-150026666D02*
X145184761Y-150074285D01*
X145232380Y-150217142D01*
X145232380Y-150312380D01*
X145184761Y-150455238D01*
X145089523Y-150550476D01*
X144994285Y-150598095D01*
X144803809Y-150645714D01*
X144660952Y-150645714D01*
X144470476Y-150598095D01*
X144375238Y-150550476D01*
X144280000Y-150455238D01*
X144232380Y-150312380D01*
X144232380Y-150217142D01*
X144280000Y-150074285D01*
X144327619Y-150026666D01*
X144232380Y-149169523D02*
X144232380Y-149360000D01*
X144280000Y-149455238D01*
X144327619Y-149502857D01*
X144470476Y-149598095D01*
X144660952Y-149645714D01*
X145041904Y-149645714D01*
X145137142Y-149598095D01*
X145184761Y-149550476D01*
X145232380Y-149455238D01*
X145232380Y-149264761D01*
X145184761Y-149169523D01*
X145137142Y-149121904D01*
X145041904Y-149074285D01*
X144803809Y-149074285D01*
X144708571Y-149121904D01*
X144660952Y-149169523D01*
X144613333Y-149264761D01*
X144613333Y-149455238D01*
X144660952Y-149550476D01*
X144708571Y-149598095D01*
X144803809Y-149645714D01*
%TO.C,C5*%
X142089142Y-158916666D02*
X142136761Y-158964285D01*
X142184380Y-159107142D01*
X142184380Y-159202380D01*
X142136761Y-159345238D01*
X142041523Y-159440476D01*
X141946285Y-159488095D01*
X141755809Y-159535714D01*
X141612952Y-159535714D01*
X141422476Y-159488095D01*
X141327238Y-159440476D01*
X141232000Y-159345238D01*
X141184380Y-159202380D01*
X141184380Y-159107142D01*
X141232000Y-158964285D01*
X141279619Y-158916666D01*
X141184380Y-158011904D02*
X141184380Y-158488095D01*
X141660571Y-158535714D01*
X141612952Y-158488095D01*
X141565333Y-158392857D01*
X141565333Y-158154761D01*
X141612952Y-158059523D01*
X141660571Y-158011904D01*
X141755809Y-157964285D01*
X141993904Y-157964285D01*
X142089142Y-158011904D01*
X142136761Y-158059523D01*
X142184380Y-158154761D01*
X142184380Y-158392857D01*
X142136761Y-158488095D01*
X142089142Y-158535714D01*
%TO.C,C4*%
X142851142Y-150026666D02*
X142898761Y-150074285D01*
X142946380Y-150217142D01*
X142946380Y-150312380D01*
X142898761Y-150455238D01*
X142803523Y-150550476D01*
X142708285Y-150598095D01*
X142517809Y-150645714D01*
X142374952Y-150645714D01*
X142184476Y-150598095D01*
X142089238Y-150550476D01*
X141994000Y-150455238D01*
X141946380Y-150312380D01*
X141946380Y-150217142D01*
X141994000Y-150074285D01*
X142041619Y-150026666D01*
X142279714Y-149169523D02*
X142946380Y-149169523D01*
X141898761Y-149407619D02*
X142613047Y-149645714D01*
X142613047Y-149026666D01*
%TO.C,C3*%
X138571242Y-156833866D02*
X138618861Y-156881485D01*
X138666480Y-157024342D01*
X138666480Y-157119580D01*
X138618861Y-157262438D01*
X138523623Y-157357676D01*
X138428385Y-157405295D01*
X138237909Y-157452914D01*
X138095052Y-157452914D01*
X137904576Y-157405295D01*
X137809338Y-157357676D01*
X137714100Y-157262438D01*
X137666480Y-157119580D01*
X137666480Y-157024342D01*
X137714100Y-156881485D01*
X137761719Y-156833866D01*
X137666480Y-156500533D02*
X137666480Y-155881485D01*
X138047433Y-156214819D01*
X138047433Y-156071961D01*
X138095052Y-155976723D01*
X138142671Y-155929104D01*
X138237909Y-155881485D01*
X138476004Y-155881485D01*
X138571242Y-155929104D01*
X138618861Y-155976723D01*
X138666480Y-156071961D01*
X138666480Y-156357676D01*
X138618861Y-156452914D01*
X138571242Y-156500533D01*
%TO.C,C2*%
X140095242Y-151499866D02*
X140142861Y-151547485D01*
X140190480Y-151690342D01*
X140190480Y-151785580D01*
X140142861Y-151928438D01*
X140047623Y-152023676D01*
X139952385Y-152071295D01*
X139761909Y-152118914D01*
X139619052Y-152118914D01*
X139428576Y-152071295D01*
X139333338Y-152023676D01*
X139238100Y-151928438D01*
X139190480Y-151785580D01*
X139190480Y-151690342D01*
X139238100Y-151547485D01*
X139285719Y-151499866D01*
X139285719Y-151118914D02*
X139238100Y-151071295D01*
X139190480Y-150976057D01*
X139190480Y-150737961D01*
X139238100Y-150642723D01*
X139285719Y-150595104D01*
X139380957Y-150547485D01*
X139476195Y-150547485D01*
X139619052Y-150595104D01*
X140190480Y-151166533D01*
X140190480Y-150547485D01*
%TO.C,C1*%
X136793242Y-156833866D02*
X136840861Y-156881485D01*
X136888480Y-157024342D01*
X136888480Y-157119580D01*
X136840861Y-157262438D01*
X136745623Y-157357676D01*
X136650385Y-157405295D01*
X136459909Y-157452914D01*
X136317052Y-157452914D01*
X136126576Y-157405295D01*
X136031338Y-157357676D01*
X135936100Y-157262438D01*
X135888480Y-157119580D01*
X135888480Y-157024342D01*
X135936100Y-156881485D01*
X135983719Y-156833866D01*
X136888480Y-155881485D02*
X136888480Y-156452914D01*
X136888480Y-156167200D02*
X135888480Y-156167200D01*
X136031338Y-156262438D01*
X136126576Y-156357676D01*
X136174195Y-156452914D01*
%TD*%
M02*
