%TF.GenerationSoftware,KiCad,Pcbnew,5.1.5+dfsg1-2build2*%
%TF.CreationDate,2021-12-28T20:55:31+01:00*%
%TF.ProjectId,Exousia,45786f75-7369-4612-9e6b-696361645f70,rev?*%
%TF.SameCoordinates,Original*%
%TF.FileFunction,Copper,L2,Bot*%
%TF.FilePolarity,Positive*%
%FSLAX46Y46*%
G04 Gerber Fmt 4.6, Leading zero omitted, Abs format (unit mm)*
G04 Created by KiCad (PCBNEW 5.1.5+dfsg1-2build2) date 2021-12-28 20:55:31*
%MOMM*%
%LPD*%
G04 APERTURE LIST*
%TA.AperFunction,ComponentPad*%
%ADD10O,1.700000X1.700000*%
%TD*%
%TA.AperFunction,ComponentPad*%
%ADD11R,1.700000X1.700000*%
%TD*%
%TA.AperFunction,ViaPad*%
%ADD12C,0.800000*%
%TD*%
%TA.AperFunction,Conductor*%
%ADD13C,0.250000*%
%TD*%
%TA.AperFunction,Conductor*%
%ADD14C,0.200000*%
%TD*%
%TA.AperFunction,Conductor*%
%ADD15C,0.254000*%
%TD*%
G04 APERTURE END LIST*
D10*
%TO.P,J3,4*%
%TO.N,Net-(J3-Pad3)*%
X193611500Y-145643600D03*
%TO.P,J3,3*%
X193611500Y-148183600D03*
%TO.P,J3,2*%
%TO.N,GND*%
X193611500Y-150723600D03*
D11*
%TO.P,J3,1*%
X193611500Y-153263600D03*
%TD*%
D10*
%TO.P,J1,4*%
%TO.N,Net-(D2-Pad1)*%
X131445000Y-145135600D03*
%TO.P,J1,3*%
X131445000Y-147675600D03*
%TO.P,J1,2*%
%TO.N,GND*%
X131445000Y-150215600D03*
D11*
%TO.P,J1,1*%
X131445000Y-152755600D03*
%TD*%
D10*
%TO.P,J2,4*%
%TO.N,+3V3*%
X133350000Y-167132000D03*
%TO.P,J2,3*%
%TO.N,SDA*%
X133350000Y-164592000D03*
%TO.P,J2,2*%
%TO.N,SCL*%
X133350000Y-162052000D03*
D11*
%TO.P,J2,1*%
%TO.N,GND*%
X133350000Y-159512000D03*
%TD*%
D12*
%TO.N,GND*%
X161036000Y-155956000D03*
X160274000Y-155956000D03*
X159258000Y-155956000D03*
X160274000Y-155194000D03*
X159512000Y-155194000D03*
X160274000Y-156718000D03*
X159512000Y-156718000D03*
%TO.N,Net-(C1-Pad2)*%
X154940000Y-153924000D03*
X143256000Y-154940000D03*
%TO.N,GND*%
X163322000Y-155956000D03*
X169926000Y-149606000D03*
X170942000Y-149606000D03*
X171958000Y-149606000D03*
X172974000Y-149606000D03*
X173990000Y-149606000D03*
X175006000Y-149606000D03*
X176022000Y-149606000D03*
X177038000Y-149606000D03*
X178054000Y-149606000D03*
X179070000Y-149606000D03*
X180086000Y-149606000D03*
X181102000Y-149606000D03*
X182118000Y-149606000D03*
X181610000Y-148844000D03*
X180594000Y-148844000D03*
X179578000Y-148844000D03*
X178562000Y-148844000D03*
X177546000Y-148844000D03*
X176530000Y-148844000D03*
X175514000Y-148844000D03*
X174498000Y-148844000D03*
X173482000Y-148844000D03*
X172466000Y-148844000D03*
X171450000Y-148844000D03*
X170434000Y-148844000D03*
X169418000Y-148844000D03*
X140716000Y-150114000D03*
X141732000Y-150114000D03*
X141224000Y-149352000D03*
X142748000Y-150114000D03*
X143764000Y-150114000D03*
X144272000Y-149352000D03*
X142240000Y-149352000D03*
X143256000Y-149352000D03*
X145288000Y-149352000D03*
X146304000Y-149352000D03*
X147320000Y-149352000D03*
X148336000Y-149352000D03*
X148844000Y-150114000D03*
X149352000Y-149352000D03*
X149860000Y-150114000D03*
X144780000Y-150114000D03*
X145796000Y-150114000D03*
X146812000Y-150114000D03*
X147828000Y-150114000D03*
X157226000Y-167386000D03*
X167894000Y-161036000D03*
X146304000Y-168148000D03*
X160274000Y-159512000D03*
%TO.N,Net-(C2-Pad1)*%
X156464000Y-153924000D03*
X143510000Y-153924000D03*
%TO.N,Net-(C16-Pad1)*%
X160247736Y-152146000D03*
X153924000Y-152146000D03*
%TO.N,Net-(C17-Pad1)*%
X165862000Y-151130000D03*
X169926000Y-143510000D03*
%TO.N,Net-(C23-Pad2)*%
X164846000Y-154432000D03*
X166878000Y-151892000D03*
%TO.N,Net-(C24-Pad1)*%
X164084000Y-155194000D03*
X166878000Y-153416000D03*
%TO.N,Net-(D2-Pad2)*%
X164846000Y-153416000D03*
X150368000Y-156972000D03*
%TO.N,Net-(D2-Pad1)*%
X141287500Y-160197800D03*
X134493000Y-156603700D03*
%TO.N,+3V3*%
X165608000Y-162306000D03*
X143510000Y-169418000D03*
%TO.N,SDA*%
X163068000Y-166116000D03*
%TO.N,SCL*%
X139446000Y-165862000D03*
X163830000Y-167132000D03*
%TO.N,Pin_FRWEN*%
X160274000Y-166878000D03*
X149504400Y-168258000D03*
%TO.N,Net-(JP2-Pad2)*%
X154178000Y-158496000D03*
X156210000Y-158386000D03*
%TO.N,FRWPG*%
X166624000Y-163576000D03*
X176530000Y-160782000D03*
%TO.N,RVSPG*%
X166878000Y-162052000D03*
X182372000Y-160782000D03*
%TO.N,DCIN*%
X149352000Y-156464000D03*
X155702000Y-156972000D03*
%TO.N,Net-(U1-Pad4)*%
X154940000Y-151130000D03*
X150622000Y-143764000D03*
%TO.N,Net-(U3-Pad7)*%
X164470002Y-147574000D03*
X160528000Y-150876000D03*
%TO.N,Net-(U3-Pad5)*%
X168910000Y-146050000D03*
X167132000Y-150622000D03*
%TO.N,VDD*%
X150368000Y-155956000D03*
X154432000Y-156210000D03*
%TD*%
D13*
%TO.N,Net-(C1-Pad2)*%
X153924000Y-154940000D02*
X154940000Y-153924000D01*
X143256000Y-154940000D02*
X153924000Y-154940000D01*
%TO.N,GND*%
X167894000Y-160528000D02*
X167894000Y-161036000D01*
X163322000Y-155956000D02*
X167894000Y-160528000D01*
%TO.N,Net-(C2-Pad1)*%
X143510000Y-153924000D02*
X144526000Y-152908000D01*
X155448000Y-152908000D02*
X156464000Y-153924000D01*
X144526000Y-152908000D02*
X155448000Y-152908000D01*
%TO.N,Net-(C16-Pad1)*%
X153924000Y-152146000D02*
X160247736Y-152146000D01*
D14*
%TO.N,Net-(C17-Pad1)*%
X165862000Y-151130000D02*
X165862000Y-146304000D01*
X168656000Y-143510000D02*
X169164000Y-143510000D01*
X165862000Y-146304000D02*
X168656000Y-143510000D01*
X169672000Y-143510000D02*
X169926000Y-143256000D01*
X169164000Y-143510000D02*
X169672000Y-143510000D01*
D13*
%TO.N,Net-(C23-Pad2)*%
X166878000Y-152400000D02*
X164846000Y-154432000D01*
X166878000Y-151892000D02*
X166878000Y-152400000D01*
%TO.N,Net-(C24-Pad1)*%
X165100000Y-155194000D02*
X164084000Y-155194000D01*
X166878000Y-153416000D02*
X165100000Y-155194000D01*
%TO.N,Net-(D2-Pad2)*%
X150368000Y-156972000D02*
X154686000Y-156972000D01*
X154686000Y-156972000D02*
X158750000Y-152908000D01*
X164338000Y-152908000D02*
X164846000Y-153416000D01*
X158750000Y-152908000D02*
X164338000Y-152908000D01*
%TO.N,Net-(D2-Pad1)*%
X137693400Y-156603700D02*
X134493000Y-156603700D01*
X141287500Y-160197800D02*
X137693400Y-156603700D01*
%TO.N,+3V3*%
X165608000Y-166370000D02*
X165608000Y-162306000D01*
X163068000Y-168910000D02*
X165608000Y-166370000D01*
X144018000Y-168910000D02*
X145288000Y-168910000D01*
X143510000Y-169418000D02*
X144018000Y-168910000D01*
X145288000Y-168910000D02*
X163068000Y-168910000D01*
%TO.N,SDA*%
X133748001Y-164990001D02*
X133350000Y-164592000D01*
X141224000Y-166624000D02*
X139192000Y-164592000D01*
X139192000Y-164592000D02*
X133350000Y-164592000D01*
X155422828Y-166624000D02*
X156197839Y-165848989D01*
X153162000Y-166624000D02*
X155422828Y-166624000D01*
X153416000Y-166624000D02*
X153162000Y-166624000D01*
X153162000Y-166624000D02*
X141224000Y-166624000D01*
X162800989Y-165848989D02*
X163068000Y-166116000D01*
X156197839Y-165848989D02*
X162800989Y-165848989D01*
%TO.N,SCL*%
X162306000Y-167132000D02*
X163830000Y-167132000D01*
X161399999Y-166225999D02*
X162306000Y-167132000D01*
X139446000Y-165862000D02*
X140716000Y-167132000D01*
X140716000Y-167132000D02*
X155448000Y-167132000D01*
X156354001Y-166225999D02*
X161399999Y-166225999D01*
X155448000Y-167132000D02*
X156354001Y-166225999D01*
%TO.N,Pin_FRWEN*%
X158858001Y-168293999D02*
X160274000Y-166878000D01*
X150513999Y-168293999D02*
X158858001Y-168293999D01*
X149540399Y-168293999D02*
X149504400Y-168258000D01*
X150513999Y-168293999D02*
X149540399Y-168293999D01*
%TO.N,Net-(JP2-Pad2)*%
X154288000Y-158386000D02*
X154178000Y-158496000D01*
X156210000Y-158386000D02*
X154288000Y-158386000D01*
%TO.N,FRWPG*%
X173736000Y-163576000D02*
X166624000Y-163576000D01*
X176530000Y-160782000D02*
X173736000Y-163576000D01*
%TO.N,RVSPG*%
X166878000Y-162052000D02*
X173736000Y-162052000D01*
X173736000Y-162052000D02*
X176022000Y-159766000D01*
X181356000Y-159766000D02*
X182372000Y-160782000D01*
X176022000Y-159766000D02*
X181356000Y-159766000D01*
%TO.N,DCIN*%
X149352000Y-157029685D02*
X149352000Y-156464000D01*
X149946316Y-157624001D02*
X149352000Y-157029685D01*
X155049999Y-157624001D02*
X149946316Y-157624001D01*
X155702000Y-156972000D02*
X155049999Y-157624001D01*
D14*
%TO.N,Net-(U1-Pad4)*%
X150622000Y-143764000D02*
X154432000Y-143764000D01*
X154940000Y-144272000D02*
X154940000Y-151130000D01*
X154432000Y-143764000D02*
X154940000Y-144272000D01*
D13*
%TO.N,Net-(U3-Pad7)*%
X161168002Y-150876000D02*
X160528000Y-150876000D01*
X164470002Y-147574000D02*
X161168002Y-150876000D01*
D14*
%TO.N,Net-(U3-Pad5)*%
X167132000Y-150622000D02*
X167132000Y-146812000D01*
X167894000Y-146050000D02*
X168910000Y-146050000D01*
X167132000Y-146812000D02*
X167894000Y-146050000D01*
D13*
%TO.N,VDD*%
X154178000Y-155956000D02*
X154432000Y-156210000D01*
X150368000Y-155956000D02*
X154178000Y-155956000D01*
%TD*%
D15*
%TO.N,GND*%
G36*
X195516500Y-169736085D02*
G01*
X143853714Y-169974896D01*
X143926900Y-169925995D01*
X144017995Y-169834900D01*
X144089567Y-169727785D01*
X144138867Y-169608765D01*
X144164000Y-169482413D01*
X144164000Y-169353587D01*
X144155107Y-169308880D01*
X144174987Y-169289000D01*
X163049390Y-169289000D01*
X163068000Y-169290833D01*
X163142297Y-169283515D01*
X163213738Y-169261844D01*
X163279579Y-169226651D01*
X163337290Y-169179290D01*
X163349160Y-169164826D01*
X165862833Y-166651154D01*
X165877290Y-166639290D01*
X165924651Y-166581579D01*
X165959844Y-166515738D01*
X165981515Y-166444297D01*
X165987000Y-166388610D01*
X165987000Y-166388608D01*
X165988833Y-166370001D01*
X165987000Y-166351394D01*
X165987000Y-163725878D01*
X165995133Y-163766765D01*
X166044433Y-163885785D01*
X166116005Y-163992900D01*
X166207100Y-164083995D01*
X166314215Y-164155567D01*
X166433235Y-164204867D01*
X166559587Y-164230000D01*
X166688413Y-164230000D01*
X166814765Y-164204867D01*
X166933785Y-164155567D01*
X167040900Y-164083995D01*
X167131995Y-163992900D01*
X167157319Y-163955000D01*
X173717390Y-163955000D01*
X173736000Y-163956833D01*
X173810297Y-163949515D01*
X173881738Y-163927844D01*
X173947579Y-163892651D01*
X174005290Y-163845290D01*
X174017160Y-163830826D01*
X176420879Y-161427107D01*
X176465587Y-161436000D01*
X176594413Y-161436000D01*
X176720765Y-161410867D01*
X176839785Y-161361567D01*
X176946900Y-161289995D01*
X177037995Y-161198900D01*
X177109567Y-161091785D01*
X177158867Y-160972765D01*
X177184000Y-160846413D01*
X177184000Y-160717587D01*
X177158867Y-160591235D01*
X177109567Y-160472215D01*
X177037995Y-160365100D01*
X176946900Y-160274005D01*
X176839785Y-160202433D01*
X176720765Y-160153133D01*
X176679878Y-160145000D01*
X181199014Y-160145000D01*
X181726893Y-160672880D01*
X181718000Y-160717587D01*
X181718000Y-160846413D01*
X181743133Y-160972765D01*
X181792433Y-161091785D01*
X181864005Y-161198900D01*
X181955100Y-161289995D01*
X182062215Y-161361567D01*
X182181235Y-161410867D01*
X182307587Y-161436000D01*
X182436413Y-161436000D01*
X182562765Y-161410867D01*
X182681785Y-161361567D01*
X182788900Y-161289995D01*
X182879995Y-161198900D01*
X182951567Y-161091785D01*
X183000867Y-160972765D01*
X183026000Y-160846413D01*
X183026000Y-160717587D01*
X183000867Y-160591235D01*
X182951567Y-160472215D01*
X182879995Y-160365100D01*
X182788900Y-160274005D01*
X182681785Y-160202433D01*
X182562765Y-160153133D01*
X182436413Y-160128000D01*
X182307587Y-160128000D01*
X182262880Y-160136893D01*
X181637160Y-159511174D01*
X181625290Y-159496710D01*
X181567579Y-159449349D01*
X181501738Y-159414156D01*
X181430297Y-159392485D01*
X181374610Y-159387000D01*
X181356000Y-159385167D01*
X181337390Y-159387000D01*
X176040606Y-159387000D01*
X176021999Y-159385167D01*
X176003392Y-159387000D01*
X176003390Y-159387000D01*
X175947703Y-159392485D01*
X175876262Y-159414156D01*
X175810421Y-159449349D01*
X175752710Y-159496710D01*
X175740845Y-159511168D01*
X173579014Y-161673000D01*
X167411319Y-161673000D01*
X167385995Y-161635100D01*
X167294900Y-161544005D01*
X167187785Y-161472433D01*
X167068765Y-161423133D01*
X166942413Y-161398000D01*
X166813587Y-161398000D01*
X166687235Y-161423133D01*
X166568215Y-161472433D01*
X166461100Y-161544005D01*
X166370005Y-161635100D01*
X166298433Y-161742215D01*
X166249133Y-161861235D01*
X166224000Y-161987587D01*
X166224000Y-162084172D01*
X166187567Y-161996215D01*
X166115995Y-161889100D01*
X166024900Y-161798005D01*
X165917785Y-161726433D01*
X165798765Y-161677133D01*
X165672413Y-161652000D01*
X165543587Y-161652000D01*
X165417235Y-161677133D01*
X165298215Y-161726433D01*
X165191100Y-161798005D01*
X165100005Y-161889100D01*
X165028433Y-161996215D01*
X164979133Y-162115235D01*
X164954000Y-162241587D01*
X164954000Y-162370413D01*
X164979133Y-162496765D01*
X165028433Y-162615785D01*
X165100005Y-162722900D01*
X165191100Y-162813995D01*
X165229001Y-162839320D01*
X165229000Y-166213013D01*
X164465821Y-166976193D01*
X164458867Y-166941235D01*
X164409567Y-166822215D01*
X164337995Y-166715100D01*
X164246900Y-166624005D01*
X164139785Y-166552433D01*
X164020765Y-166503133D01*
X163894413Y-166478000D01*
X163765587Y-166478000D01*
X163639235Y-166503133D01*
X163579295Y-166527961D01*
X163647567Y-166425785D01*
X163696867Y-166306765D01*
X163722000Y-166180413D01*
X163722000Y-166051587D01*
X163696867Y-165925235D01*
X163647567Y-165806215D01*
X163575995Y-165699100D01*
X163484900Y-165608005D01*
X163377785Y-165536433D01*
X163258765Y-165487133D01*
X163132413Y-165462000D01*
X163003587Y-165462000D01*
X162899271Y-165482750D01*
X162875286Y-165475474D01*
X162819599Y-165469989D01*
X162800989Y-165468156D01*
X162782379Y-165469989D01*
X156216445Y-165469989D01*
X156197838Y-165468156D01*
X156179231Y-165469989D01*
X156179229Y-165469989D01*
X156123542Y-165475474D01*
X156052101Y-165497145D01*
X155986260Y-165532338D01*
X155928549Y-165579699D01*
X155916683Y-165594158D01*
X155265842Y-166245000D01*
X141380987Y-166245000D01*
X139473160Y-164337174D01*
X139461290Y-164322710D01*
X139403579Y-164275349D01*
X139337738Y-164240156D01*
X139266297Y-164218485D01*
X139210610Y-164213000D01*
X139192000Y-164211167D01*
X139173390Y-164213000D01*
X134387974Y-164213000D01*
X134328352Y-164069060D01*
X134207533Y-163888241D01*
X134053759Y-163734467D01*
X133872940Y-163613648D01*
X133672025Y-163530426D01*
X133458735Y-163488000D01*
X133241265Y-163488000D01*
X133027975Y-163530426D01*
X132827060Y-163613648D01*
X132646241Y-163734467D01*
X132492467Y-163888241D01*
X132371648Y-164069060D01*
X132288426Y-164269975D01*
X132246000Y-164483265D01*
X132246000Y-164700735D01*
X132288426Y-164914025D01*
X132371648Y-165114940D01*
X132492467Y-165295759D01*
X132646241Y-165449533D01*
X132827060Y-165570352D01*
X133027975Y-165653574D01*
X133241265Y-165696000D01*
X133458735Y-165696000D01*
X133672025Y-165653574D01*
X133872940Y-165570352D01*
X134053759Y-165449533D01*
X134207533Y-165295759D01*
X134328352Y-165114940D01*
X134387974Y-164971000D01*
X139035014Y-164971000D01*
X139290193Y-165226179D01*
X139255235Y-165233133D01*
X139136215Y-165282433D01*
X139029100Y-165354005D01*
X138938005Y-165445100D01*
X138866433Y-165552215D01*
X138817133Y-165671235D01*
X138792000Y-165797587D01*
X138792000Y-165926413D01*
X138817133Y-166052765D01*
X138866433Y-166171785D01*
X138938005Y-166278900D01*
X139029100Y-166369995D01*
X139136215Y-166441567D01*
X139255235Y-166490867D01*
X139381587Y-166516000D01*
X139510413Y-166516000D01*
X139555121Y-166507107D01*
X140434844Y-167386831D01*
X140446710Y-167401290D01*
X140504421Y-167448651D01*
X140570262Y-167483844D01*
X140641703Y-167505515D01*
X140697390Y-167511000D01*
X140697392Y-167511000D01*
X140715999Y-167512833D01*
X140734606Y-167511000D01*
X155429390Y-167511000D01*
X155448000Y-167512833D01*
X155522297Y-167505515D01*
X155522300Y-167505514D01*
X155593738Y-167483844D01*
X155659579Y-167448651D01*
X155717290Y-167401290D01*
X155729160Y-167386826D01*
X156510988Y-166604999D01*
X159679196Y-166604999D01*
X159645133Y-166687235D01*
X159620000Y-166813587D01*
X159620000Y-166942413D01*
X159628893Y-166987120D01*
X158701015Y-167914999D01*
X150061773Y-167914999D01*
X150012395Y-167841100D01*
X149921300Y-167750005D01*
X149814185Y-167678433D01*
X149695165Y-167629133D01*
X149568813Y-167604000D01*
X149439987Y-167604000D01*
X149313635Y-167629133D01*
X149194615Y-167678433D01*
X149087500Y-167750005D01*
X148996405Y-167841100D01*
X148924833Y-167948215D01*
X148875533Y-168067235D01*
X148850400Y-168193587D01*
X148850400Y-168322413D01*
X148875533Y-168448765D01*
X148909596Y-168531000D01*
X144036606Y-168531000D01*
X144017999Y-168529167D01*
X143999392Y-168531000D01*
X143999390Y-168531000D01*
X143943703Y-168536485D01*
X143872262Y-168558156D01*
X143806421Y-168593349D01*
X143748710Y-168640710D01*
X143736847Y-168655166D01*
X143619120Y-168772893D01*
X143574413Y-168764000D01*
X143445587Y-168764000D01*
X143319235Y-168789133D01*
X143200215Y-168838433D01*
X143093100Y-168910005D01*
X143002005Y-169001100D01*
X142930433Y-169108215D01*
X142881133Y-169227235D01*
X142856000Y-169353587D01*
X142856000Y-169482413D01*
X142881133Y-169608765D01*
X142930433Y-169727785D01*
X143002005Y-169834900D01*
X143093100Y-169925995D01*
X143170931Y-169978000D01*
X129832100Y-169978000D01*
X129832100Y-167023265D01*
X132246000Y-167023265D01*
X132246000Y-167240735D01*
X132288426Y-167454025D01*
X132371648Y-167654940D01*
X132492467Y-167835759D01*
X132646241Y-167989533D01*
X132827060Y-168110352D01*
X133027975Y-168193574D01*
X133241265Y-168236000D01*
X133458735Y-168236000D01*
X133672025Y-168193574D01*
X133872940Y-168110352D01*
X134053759Y-167989533D01*
X134207533Y-167835759D01*
X134328352Y-167654940D01*
X134411574Y-167454025D01*
X134454000Y-167240735D01*
X134454000Y-167023265D01*
X134411574Y-166809975D01*
X134328352Y-166609060D01*
X134207533Y-166428241D01*
X134053759Y-166274467D01*
X133872940Y-166153648D01*
X133672025Y-166070426D01*
X133458735Y-166028000D01*
X133241265Y-166028000D01*
X133027975Y-166070426D01*
X132827060Y-166153648D01*
X132646241Y-166274467D01*
X132492467Y-166428241D01*
X132371648Y-166609060D01*
X132288426Y-166809975D01*
X132246000Y-167023265D01*
X129832100Y-167023265D01*
X129832100Y-161943265D01*
X132246000Y-161943265D01*
X132246000Y-162160735D01*
X132288426Y-162374025D01*
X132371648Y-162574940D01*
X132492467Y-162755759D01*
X132646241Y-162909533D01*
X132827060Y-163030352D01*
X133027975Y-163113574D01*
X133241265Y-163156000D01*
X133458735Y-163156000D01*
X133672025Y-163113574D01*
X133872940Y-163030352D01*
X134053759Y-162909533D01*
X134207533Y-162755759D01*
X134328352Y-162574940D01*
X134411574Y-162374025D01*
X134454000Y-162160735D01*
X134454000Y-161943265D01*
X134411574Y-161729975D01*
X134328352Y-161529060D01*
X134207533Y-161348241D01*
X134053759Y-161194467D01*
X133872940Y-161073648D01*
X133672025Y-160990426D01*
X133458735Y-160948000D01*
X133241265Y-160948000D01*
X133027975Y-160990426D01*
X132827060Y-161073648D01*
X132646241Y-161194467D01*
X132492467Y-161348241D01*
X132371648Y-161529060D01*
X132288426Y-161729975D01*
X132246000Y-161943265D01*
X129832100Y-161943265D01*
X129832100Y-156539287D01*
X133839000Y-156539287D01*
X133839000Y-156668113D01*
X133864133Y-156794465D01*
X133913433Y-156913485D01*
X133985005Y-157020600D01*
X134076100Y-157111695D01*
X134183215Y-157183267D01*
X134302235Y-157232567D01*
X134428587Y-157257700D01*
X134557413Y-157257700D01*
X134683765Y-157232567D01*
X134802785Y-157183267D01*
X134909900Y-157111695D01*
X135000995Y-157020600D01*
X135026319Y-156982700D01*
X137536414Y-156982700D01*
X140642393Y-160088680D01*
X140633500Y-160133387D01*
X140633500Y-160262213D01*
X140658633Y-160388565D01*
X140707933Y-160507585D01*
X140779505Y-160614700D01*
X140870600Y-160705795D01*
X140977715Y-160777367D01*
X141096735Y-160826667D01*
X141223087Y-160851800D01*
X141351913Y-160851800D01*
X141478265Y-160826667D01*
X141597285Y-160777367D01*
X141704400Y-160705795D01*
X141795495Y-160614700D01*
X141867067Y-160507585D01*
X141916367Y-160388565D01*
X141941500Y-160262213D01*
X141941500Y-160133387D01*
X141916367Y-160007035D01*
X141867067Y-159888015D01*
X141795495Y-159780900D01*
X141704400Y-159689805D01*
X141597285Y-159618233D01*
X141478265Y-159568933D01*
X141351913Y-159543800D01*
X141223087Y-159543800D01*
X141178380Y-159552693D01*
X137974560Y-156348874D01*
X137962690Y-156334410D01*
X137904979Y-156287049D01*
X137839138Y-156251856D01*
X137767697Y-156230185D01*
X137712010Y-156224700D01*
X137693400Y-156222867D01*
X137674790Y-156224700D01*
X135026319Y-156224700D01*
X135000995Y-156186800D01*
X134909900Y-156095705D01*
X134802785Y-156024133D01*
X134683765Y-155974833D01*
X134557413Y-155949700D01*
X134428587Y-155949700D01*
X134302235Y-155974833D01*
X134183215Y-156024133D01*
X134076100Y-156095705D01*
X133985005Y-156186800D01*
X133913433Y-156293915D01*
X133864133Y-156412935D01*
X133839000Y-156539287D01*
X129832100Y-156539287D01*
X129832100Y-147566865D01*
X130341000Y-147566865D01*
X130341000Y-147784335D01*
X130383426Y-147997625D01*
X130466648Y-148198540D01*
X130587467Y-148379359D01*
X130741241Y-148533133D01*
X130922060Y-148653952D01*
X131122975Y-148737174D01*
X131336265Y-148779600D01*
X131553735Y-148779600D01*
X131767025Y-148737174D01*
X131967940Y-148653952D01*
X132148759Y-148533133D01*
X132302533Y-148379359D01*
X132423352Y-148198540D01*
X132506574Y-147997625D01*
X132549000Y-147784335D01*
X132549000Y-147566865D01*
X132506574Y-147353575D01*
X132423352Y-147152660D01*
X132302533Y-146971841D01*
X132148759Y-146818067D01*
X131967940Y-146697248D01*
X131767025Y-146614026D01*
X131553735Y-146571600D01*
X131336265Y-146571600D01*
X131122975Y-146614026D01*
X130922060Y-146697248D01*
X130741241Y-146818067D01*
X130587467Y-146971841D01*
X130466648Y-147152660D01*
X130383426Y-147353575D01*
X130341000Y-147566865D01*
X129832100Y-147566865D01*
X129832100Y-145026865D01*
X130341000Y-145026865D01*
X130341000Y-145244335D01*
X130383426Y-145457625D01*
X130466648Y-145658540D01*
X130587467Y-145839359D01*
X130741241Y-145993133D01*
X130922060Y-146113952D01*
X131122975Y-146197174D01*
X131336265Y-146239600D01*
X131553735Y-146239600D01*
X131767025Y-146197174D01*
X131967940Y-146113952D01*
X132148759Y-145993133D01*
X132302533Y-145839359D01*
X132423352Y-145658540D01*
X132506574Y-145457625D01*
X132549000Y-145244335D01*
X132549000Y-145026865D01*
X132506574Y-144813575D01*
X132423352Y-144612660D01*
X132302533Y-144431841D01*
X132148759Y-144278067D01*
X131967940Y-144157248D01*
X131767025Y-144074026D01*
X131553735Y-144031600D01*
X131336265Y-144031600D01*
X131122975Y-144074026D01*
X130922060Y-144157248D01*
X130741241Y-144278067D01*
X130587467Y-144431841D01*
X130466648Y-144612660D01*
X130383426Y-144813575D01*
X130341000Y-145026865D01*
X129832100Y-145026865D01*
X129832100Y-143369715D01*
X150185473Y-143275632D01*
X150114005Y-143347100D01*
X150042433Y-143454215D01*
X149993133Y-143573235D01*
X149968000Y-143699587D01*
X149968000Y-143828413D01*
X149993133Y-143954765D01*
X150042433Y-144073785D01*
X150114005Y-144180900D01*
X150205100Y-144271995D01*
X150312215Y-144343567D01*
X150431235Y-144392867D01*
X150557587Y-144418000D01*
X150686413Y-144418000D01*
X150812765Y-144392867D01*
X150931785Y-144343567D01*
X151038900Y-144271995D01*
X151129995Y-144180900D01*
X151172023Y-144118000D01*
X154285370Y-144118000D01*
X154586000Y-144418632D01*
X154586001Y-150579976D01*
X154523100Y-150622005D01*
X154432005Y-150713100D01*
X154360433Y-150820215D01*
X154311133Y-150939235D01*
X154286000Y-151065587D01*
X154286000Y-151194413D01*
X154311133Y-151320765D01*
X154360433Y-151439785D01*
X154432005Y-151546900D01*
X154523100Y-151637995D01*
X154630215Y-151709567D01*
X154749235Y-151758867D01*
X154790122Y-151767000D01*
X154457319Y-151767000D01*
X154431995Y-151729100D01*
X154340900Y-151638005D01*
X154233785Y-151566433D01*
X154114765Y-151517133D01*
X153988413Y-151492000D01*
X153859587Y-151492000D01*
X153733235Y-151517133D01*
X153614215Y-151566433D01*
X153507100Y-151638005D01*
X153416005Y-151729100D01*
X153344433Y-151836215D01*
X153295133Y-151955235D01*
X153270000Y-152081587D01*
X153270000Y-152210413D01*
X153295133Y-152336765D01*
X153344433Y-152455785D01*
X153393354Y-152529000D01*
X144544610Y-152529000D01*
X144526000Y-152527167D01*
X144451702Y-152534485D01*
X144430031Y-152541059D01*
X144380262Y-152556156D01*
X144314421Y-152591349D01*
X144256710Y-152638710D01*
X144244844Y-152653169D01*
X143619121Y-153278893D01*
X143574413Y-153270000D01*
X143445587Y-153270000D01*
X143319235Y-153295133D01*
X143200215Y-153344433D01*
X143093100Y-153416005D01*
X143002005Y-153507100D01*
X142930433Y-153614215D01*
X142881133Y-153733235D01*
X142856000Y-153859587D01*
X142856000Y-153988413D01*
X142881133Y-154114765D01*
X142930433Y-154233785D01*
X143000133Y-154338099D01*
X142946215Y-154360433D01*
X142839100Y-154432005D01*
X142748005Y-154523100D01*
X142676433Y-154630215D01*
X142627133Y-154749235D01*
X142602000Y-154875587D01*
X142602000Y-155004413D01*
X142627133Y-155130765D01*
X142676433Y-155249785D01*
X142748005Y-155356900D01*
X142839100Y-155447995D01*
X142946215Y-155519567D01*
X143065235Y-155568867D01*
X143191587Y-155594000D01*
X143320413Y-155594000D01*
X143446765Y-155568867D01*
X143565785Y-155519567D01*
X143672900Y-155447995D01*
X143763995Y-155356900D01*
X143789319Y-155319000D01*
X150218122Y-155319000D01*
X150177235Y-155327133D01*
X150058215Y-155376433D01*
X149951100Y-155448005D01*
X149860005Y-155539100D01*
X149788433Y-155646215D01*
X149739133Y-155765235D01*
X149714000Y-155891587D01*
X149714000Y-155919322D01*
X149661785Y-155884433D01*
X149542765Y-155835133D01*
X149416413Y-155810000D01*
X149287587Y-155810000D01*
X149161235Y-155835133D01*
X149042215Y-155884433D01*
X148935100Y-155956005D01*
X148844005Y-156047100D01*
X148772433Y-156154215D01*
X148723133Y-156273235D01*
X148698000Y-156399587D01*
X148698000Y-156528413D01*
X148723133Y-156654765D01*
X148772433Y-156773785D01*
X148844005Y-156880900D01*
X148935100Y-156971995D01*
X148973000Y-156997319D01*
X148973000Y-157011075D01*
X148971167Y-157029685D01*
X148978485Y-157103982D01*
X148985059Y-157125653D01*
X149000156Y-157175422D01*
X149035349Y-157241263D01*
X149082710Y-157298975D01*
X149097174Y-157310845D01*
X149665160Y-157878832D01*
X149677026Y-157893291D01*
X149734737Y-157940652D01*
X149800578Y-157975845D01*
X149872019Y-157997516D01*
X149946316Y-158004834D01*
X149964926Y-158003001D01*
X153746104Y-158003001D01*
X153670005Y-158079100D01*
X153598433Y-158186215D01*
X153549133Y-158305235D01*
X153524000Y-158431587D01*
X153524000Y-158560413D01*
X153549133Y-158686765D01*
X153598433Y-158805785D01*
X153670005Y-158912900D01*
X153761100Y-159003995D01*
X153868215Y-159075567D01*
X153987235Y-159124867D01*
X154113587Y-159150000D01*
X154242413Y-159150000D01*
X154368765Y-159124867D01*
X154487785Y-159075567D01*
X154594900Y-159003995D01*
X154685995Y-158912900D01*
X154757567Y-158805785D01*
X154774461Y-158765000D01*
X155676681Y-158765000D01*
X155702005Y-158802900D01*
X155793100Y-158893995D01*
X155900215Y-158965567D01*
X156019235Y-159014867D01*
X156145587Y-159040000D01*
X156274413Y-159040000D01*
X156400765Y-159014867D01*
X156519785Y-158965567D01*
X156626900Y-158893995D01*
X156717995Y-158802900D01*
X156789567Y-158695785D01*
X156838867Y-158576765D01*
X156864000Y-158450413D01*
X156864000Y-158321587D01*
X156838867Y-158195235D01*
X156789567Y-158076215D01*
X156717995Y-157969100D01*
X156626900Y-157878005D01*
X156519785Y-157806433D01*
X156400765Y-157757133D01*
X156274413Y-157732000D01*
X156145587Y-157732000D01*
X156019235Y-157757133D01*
X155900215Y-157806433D01*
X155793100Y-157878005D01*
X155702005Y-157969100D01*
X155676681Y-158007000D01*
X154613895Y-158007000D01*
X154609896Y-158003001D01*
X155031389Y-158003001D01*
X155049999Y-158004834D01*
X155124296Y-157997516D01*
X155195737Y-157975845D01*
X155261578Y-157940652D01*
X155319289Y-157893291D01*
X155331159Y-157878827D01*
X155592879Y-157617107D01*
X155637587Y-157626000D01*
X155766413Y-157626000D01*
X155892765Y-157600867D01*
X156011785Y-157551567D01*
X156118900Y-157479995D01*
X156209995Y-157388900D01*
X156281567Y-157281785D01*
X156330867Y-157162765D01*
X156356000Y-157036413D01*
X156356000Y-156907587D01*
X156330867Y-156781235D01*
X156281567Y-156662215D01*
X156209995Y-156555100D01*
X156118900Y-156464005D01*
X156011785Y-156392433D01*
X155892765Y-156343133D01*
X155857807Y-156336179D01*
X158906987Y-153287000D01*
X164181014Y-153287000D01*
X164200893Y-153306879D01*
X164192000Y-153351587D01*
X164192000Y-153480413D01*
X164217133Y-153606765D01*
X164266433Y-153725785D01*
X164338005Y-153832900D01*
X164429100Y-153923995D01*
X164429107Y-153924000D01*
X164429100Y-153924005D01*
X164338005Y-154015100D01*
X164266433Y-154122215D01*
X164217133Y-154241235D01*
X164192000Y-154367587D01*
X164192000Y-154496413D01*
X164202823Y-154550823D01*
X164148413Y-154540000D01*
X164019587Y-154540000D01*
X163893235Y-154565133D01*
X163774215Y-154614433D01*
X163667100Y-154686005D01*
X163576005Y-154777100D01*
X163504433Y-154884215D01*
X163455133Y-155003235D01*
X163430000Y-155129587D01*
X163430000Y-155258413D01*
X163455133Y-155384765D01*
X163504433Y-155503785D01*
X163576005Y-155610900D01*
X163667100Y-155701995D01*
X163774215Y-155773567D01*
X163893235Y-155822867D01*
X164019587Y-155848000D01*
X164148413Y-155848000D01*
X164274765Y-155822867D01*
X164393785Y-155773567D01*
X164500900Y-155701995D01*
X164591995Y-155610900D01*
X164617319Y-155573000D01*
X165081390Y-155573000D01*
X165100000Y-155574833D01*
X165174297Y-155567515D01*
X165245738Y-155545844D01*
X165311579Y-155510651D01*
X165369290Y-155463290D01*
X165381160Y-155448826D01*
X166768880Y-154061107D01*
X166813587Y-154070000D01*
X166942413Y-154070000D01*
X167068765Y-154044867D01*
X167187785Y-153995567D01*
X167294900Y-153923995D01*
X167385995Y-153832900D01*
X167457567Y-153725785D01*
X167506867Y-153606765D01*
X167532000Y-153480413D01*
X167532000Y-153351587D01*
X167506867Y-153225235D01*
X167457567Y-153106215D01*
X167385995Y-152999100D01*
X167294900Y-152908005D01*
X167187785Y-152836433D01*
X167068765Y-152787133D01*
X167033807Y-152780180D01*
X167132832Y-152681155D01*
X167147290Y-152669290D01*
X167194651Y-152611579D01*
X167229844Y-152545738D01*
X167251515Y-152474297D01*
X167256293Y-152425792D01*
X167294900Y-152399995D01*
X167385995Y-152308900D01*
X167457567Y-152201785D01*
X167506867Y-152082765D01*
X167532000Y-151956413D01*
X167532000Y-151827587D01*
X167506867Y-151701235D01*
X167457567Y-151582215D01*
X167385995Y-151475100D01*
X167294900Y-151384005D01*
X167187785Y-151312433D01*
X167099828Y-151276000D01*
X167196413Y-151276000D01*
X167322765Y-151250867D01*
X167441785Y-151201567D01*
X167548900Y-151129995D01*
X167639995Y-151038900D01*
X167711567Y-150931785D01*
X167760867Y-150812765D01*
X167786000Y-150686413D01*
X167786000Y-150557587D01*
X167760867Y-150431235D01*
X167711567Y-150312215D01*
X167639995Y-150205100D01*
X167548900Y-150114005D01*
X167486000Y-150071977D01*
X167486000Y-148074865D01*
X192507500Y-148074865D01*
X192507500Y-148292335D01*
X192549926Y-148505625D01*
X192633148Y-148706540D01*
X192753967Y-148887359D01*
X192907741Y-149041133D01*
X193088560Y-149161952D01*
X193289475Y-149245174D01*
X193502765Y-149287600D01*
X193720235Y-149287600D01*
X193933525Y-149245174D01*
X194134440Y-149161952D01*
X194315259Y-149041133D01*
X194469033Y-148887359D01*
X194589852Y-148706540D01*
X194673074Y-148505625D01*
X194715500Y-148292335D01*
X194715500Y-148074865D01*
X194673074Y-147861575D01*
X194589852Y-147660660D01*
X194469033Y-147479841D01*
X194315259Y-147326067D01*
X194134440Y-147205248D01*
X193933525Y-147122026D01*
X193720235Y-147079600D01*
X193502765Y-147079600D01*
X193289475Y-147122026D01*
X193088560Y-147205248D01*
X192907741Y-147326067D01*
X192753967Y-147479841D01*
X192633148Y-147660660D01*
X192549926Y-147861575D01*
X192507500Y-148074865D01*
X167486000Y-148074865D01*
X167486000Y-146958630D01*
X168040631Y-146404000D01*
X168359977Y-146404000D01*
X168402005Y-146466900D01*
X168493100Y-146557995D01*
X168600215Y-146629567D01*
X168719235Y-146678867D01*
X168845587Y-146704000D01*
X168974413Y-146704000D01*
X169100765Y-146678867D01*
X169219785Y-146629567D01*
X169326900Y-146557995D01*
X169417995Y-146466900D01*
X169489567Y-146359785D01*
X169538867Y-146240765D01*
X169564000Y-146114413D01*
X169564000Y-145985587D01*
X169538867Y-145859235D01*
X169489567Y-145740215D01*
X169417995Y-145633100D01*
X169326900Y-145542005D01*
X169316215Y-145534865D01*
X192507500Y-145534865D01*
X192507500Y-145752335D01*
X192549926Y-145965625D01*
X192633148Y-146166540D01*
X192753967Y-146347359D01*
X192907741Y-146501133D01*
X193088560Y-146621952D01*
X193289475Y-146705174D01*
X193502765Y-146747600D01*
X193720235Y-146747600D01*
X193933525Y-146705174D01*
X194134440Y-146621952D01*
X194315259Y-146501133D01*
X194469033Y-146347359D01*
X194589852Y-146166540D01*
X194673074Y-145965625D01*
X194715500Y-145752335D01*
X194715500Y-145534865D01*
X194673074Y-145321575D01*
X194589852Y-145120660D01*
X194469033Y-144939841D01*
X194315259Y-144786067D01*
X194134440Y-144665248D01*
X193933525Y-144582026D01*
X193720235Y-144539600D01*
X193502765Y-144539600D01*
X193289475Y-144582026D01*
X193088560Y-144665248D01*
X192907741Y-144786067D01*
X192753967Y-144939841D01*
X192633148Y-145120660D01*
X192549926Y-145321575D01*
X192507500Y-145534865D01*
X169316215Y-145534865D01*
X169219785Y-145470433D01*
X169100765Y-145421133D01*
X168974413Y-145396000D01*
X168845587Y-145396000D01*
X168719235Y-145421133D01*
X168600215Y-145470433D01*
X168493100Y-145542005D01*
X168402005Y-145633100D01*
X168359977Y-145696000D01*
X167911374Y-145696000D01*
X167894000Y-145694289D01*
X167876626Y-145696000D01*
X167876618Y-145696000D01*
X167824604Y-145701123D01*
X167757875Y-145721365D01*
X167696377Y-145754236D01*
X167642474Y-145798474D01*
X167631393Y-145811976D01*
X166893977Y-146549393D01*
X166880475Y-146560474D01*
X166836237Y-146614377D01*
X166828118Y-146629567D01*
X166803366Y-146675875D01*
X166783123Y-146742604D01*
X166776289Y-146812000D01*
X166778001Y-146829384D01*
X166778000Y-150071976D01*
X166715100Y-150114005D01*
X166624005Y-150205100D01*
X166552433Y-150312215D01*
X166503133Y-150431235D01*
X166478000Y-150557587D01*
X166478000Y-150686413D01*
X166503133Y-150812765D01*
X166552433Y-150931785D01*
X166624005Y-151038900D01*
X166715100Y-151129995D01*
X166822215Y-151201567D01*
X166910172Y-151238000D01*
X166813587Y-151238000D01*
X166687235Y-151263133D01*
X166568215Y-151312433D01*
X166466039Y-151380705D01*
X166490867Y-151320765D01*
X166516000Y-151194413D01*
X166516000Y-151065587D01*
X166490867Y-150939235D01*
X166441567Y-150820215D01*
X166369995Y-150713100D01*
X166278900Y-150622005D01*
X166216000Y-150579977D01*
X166216000Y-146450630D01*
X168802631Y-143864000D01*
X169375977Y-143864000D01*
X169418005Y-143926900D01*
X169509100Y-144017995D01*
X169616215Y-144089567D01*
X169735235Y-144138867D01*
X169861587Y-144164000D01*
X169990413Y-144164000D01*
X170116765Y-144138867D01*
X170235785Y-144089567D01*
X170342900Y-144017995D01*
X170433995Y-143926900D01*
X170505567Y-143819785D01*
X170554867Y-143700765D01*
X170580000Y-143574413D01*
X170580000Y-143445587D01*
X170554867Y-143319235D01*
X170507135Y-143204000D01*
X195516500Y-143204000D01*
X195516500Y-169736085D01*
G37*
X195516500Y-169736085D02*
X143853714Y-169974896D01*
X143926900Y-169925995D01*
X144017995Y-169834900D01*
X144089567Y-169727785D01*
X144138867Y-169608765D01*
X144164000Y-169482413D01*
X144164000Y-169353587D01*
X144155107Y-169308880D01*
X144174987Y-169289000D01*
X163049390Y-169289000D01*
X163068000Y-169290833D01*
X163142297Y-169283515D01*
X163213738Y-169261844D01*
X163279579Y-169226651D01*
X163337290Y-169179290D01*
X163349160Y-169164826D01*
X165862833Y-166651154D01*
X165877290Y-166639290D01*
X165924651Y-166581579D01*
X165959844Y-166515738D01*
X165981515Y-166444297D01*
X165987000Y-166388610D01*
X165987000Y-166388608D01*
X165988833Y-166370001D01*
X165987000Y-166351394D01*
X165987000Y-163725878D01*
X165995133Y-163766765D01*
X166044433Y-163885785D01*
X166116005Y-163992900D01*
X166207100Y-164083995D01*
X166314215Y-164155567D01*
X166433235Y-164204867D01*
X166559587Y-164230000D01*
X166688413Y-164230000D01*
X166814765Y-164204867D01*
X166933785Y-164155567D01*
X167040900Y-164083995D01*
X167131995Y-163992900D01*
X167157319Y-163955000D01*
X173717390Y-163955000D01*
X173736000Y-163956833D01*
X173810297Y-163949515D01*
X173881738Y-163927844D01*
X173947579Y-163892651D01*
X174005290Y-163845290D01*
X174017160Y-163830826D01*
X176420879Y-161427107D01*
X176465587Y-161436000D01*
X176594413Y-161436000D01*
X176720765Y-161410867D01*
X176839785Y-161361567D01*
X176946900Y-161289995D01*
X177037995Y-161198900D01*
X177109567Y-161091785D01*
X177158867Y-160972765D01*
X177184000Y-160846413D01*
X177184000Y-160717587D01*
X177158867Y-160591235D01*
X177109567Y-160472215D01*
X177037995Y-160365100D01*
X176946900Y-160274005D01*
X176839785Y-160202433D01*
X176720765Y-160153133D01*
X176679878Y-160145000D01*
X181199014Y-160145000D01*
X181726893Y-160672880D01*
X181718000Y-160717587D01*
X181718000Y-160846413D01*
X181743133Y-160972765D01*
X181792433Y-161091785D01*
X181864005Y-161198900D01*
X181955100Y-161289995D01*
X182062215Y-161361567D01*
X182181235Y-161410867D01*
X182307587Y-161436000D01*
X182436413Y-161436000D01*
X182562765Y-161410867D01*
X182681785Y-161361567D01*
X182788900Y-161289995D01*
X182879995Y-161198900D01*
X182951567Y-161091785D01*
X183000867Y-160972765D01*
X183026000Y-160846413D01*
X183026000Y-160717587D01*
X183000867Y-160591235D01*
X182951567Y-160472215D01*
X182879995Y-160365100D01*
X182788900Y-160274005D01*
X182681785Y-160202433D01*
X182562765Y-160153133D01*
X182436413Y-160128000D01*
X182307587Y-160128000D01*
X182262880Y-160136893D01*
X181637160Y-159511174D01*
X181625290Y-159496710D01*
X181567579Y-159449349D01*
X181501738Y-159414156D01*
X181430297Y-159392485D01*
X181374610Y-159387000D01*
X181356000Y-159385167D01*
X181337390Y-159387000D01*
X176040606Y-159387000D01*
X176021999Y-159385167D01*
X176003392Y-159387000D01*
X176003390Y-159387000D01*
X175947703Y-159392485D01*
X175876262Y-159414156D01*
X175810421Y-159449349D01*
X175752710Y-159496710D01*
X175740845Y-159511168D01*
X173579014Y-161673000D01*
X167411319Y-161673000D01*
X167385995Y-161635100D01*
X167294900Y-161544005D01*
X167187785Y-161472433D01*
X167068765Y-161423133D01*
X166942413Y-161398000D01*
X166813587Y-161398000D01*
X166687235Y-161423133D01*
X166568215Y-161472433D01*
X166461100Y-161544005D01*
X166370005Y-161635100D01*
X166298433Y-161742215D01*
X166249133Y-161861235D01*
X166224000Y-161987587D01*
X166224000Y-162084172D01*
X166187567Y-161996215D01*
X166115995Y-161889100D01*
X166024900Y-161798005D01*
X165917785Y-161726433D01*
X165798765Y-161677133D01*
X165672413Y-161652000D01*
X165543587Y-161652000D01*
X165417235Y-161677133D01*
X165298215Y-161726433D01*
X165191100Y-161798005D01*
X165100005Y-161889100D01*
X165028433Y-161996215D01*
X164979133Y-162115235D01*
X164954000Y-162241587D01*
X164954000Y-162370413D01*
X164979133Y-162496765D01*
X165028433Y-162615785D01*
X165100005Y-162722900D01*
X165191100Y-162813995D01*
X165229001Y-162839320D01*
X165229000Y-166213013D01*
X164465821Y-166976193D01*
X164458867Y-166941235D01*
X164409567Y-166822215D01*
X164337995Y-166715100D01*
X164246900Y-166624005D01*
X164139785Y-166552433D01*
X164020765Y-166503133D01*
X163894413Y-166478000D01*
X163765587Y-166478000D01*
X163639235Y-166503133D01*
X163579295Y-166527961D01*
X163647567Y-166425785D01*
X163696867Y-166306765D01*
X163722000Y-166180413D01*
X163722000Y-166051587D01*
X163696867Y-165925235D01*
X163647567Y-165806215D01*
X163575995Y-165699100D01*
X163484900Y-165608005D01*
X163377785Y-165536433D01*
X163258765Y-165487133D01*
X163132413Y-165462000D01*
X163003587Y-165462000D01*
X162899271Y-165482750D01*
X162875286Y-165475474D01*
X162819599Y-165469989D01*
X162800989Y-165468156D01*
X162782379Y-165469989D01*
X156216445Y-165469989D01*
X156197838Y-165468156D01*
X156179231Y-165469989D01*
X156179229Y-165469989D01*
X156123542Y-165475474D01*
X156052101Y-165497145D01*
X155986260Y-165532338D01*
X155928549Y-165579699D01*
X155916683Y-165594158D01*
X155265842Y-166245000D01*
X141380987Y-166245000D01*
X139473160Y-164337174D01*
X139461290Y-164322710D01*
X139403579Y-164275349D01*
X139337738Y-164240156D01*
X139266297Y-164218485D01*
X139210610Y-164213000D01*
X139192000Y-164211167D01*
X139173390Y-164213000D01*
X134387974Y-164213000D01*
X134328352Y-164069060D01*
X134207533Y-163888241D01*
X134053759Y-163734467D01*
X133872940Y-163613648D01*
X133672025Y-163530426D01*
X133458735Y-163488000D01*
X133241265Y-163488000D01*
X133027975Y-163530426D01*
X132827060Y-163613648D01*
X132646241Y-163734467D01*
X132492467Y-163888241D01*
X132371648Y-164069060D01*
X132288426Y-164269975D01*
X132246000Y-164483265D01*
X132246000Y-164700735D01*
X132288426Y-164914025D01*
X132371648Y-165114940D01*
X132492467Y-165295759D01*
X132646241Y-165449533D01*
X132827060Y-165570352D01*
X133027975Y-165653574D01*
X133241265Y-165696000D01*
X133458735Y-165696000D01*
X133672025Y-165653574D01*
X133872940Y-165570352D01*
X134053759Y-165449533D01*
X134207533Y-165295759D01*
X134328352Y-165114940D01*
X134387974Y-164971000D01*
X139035014Y-164971000D01*
X139290193Y-165226179D01*
X139255235Y-165233133D01*
X139136215Y-165282433D01*
X139029100Y-165354005D01*
X138938005Y-165445100D01*
X138866433Y-165552215D01*
X138817133Y-165671235D01*
X138792000Y-165797587D01*
X138792000Y-165926413D01*
X138817133Y-166052765D01*
X138866433Y-166171785D01*
X138938005Y-166278900D01*
X139029100Y-166369995D01*
X139136215Y-166441567D01*
X139255235Y-166490867D01*
X139381587Y-166516000D01*
X139510413Y-166516000D01*
X139555121Y-166507107D01*
X140434844Y-167386831D01*
X140446710Y-167401290D01*
X140504421Y-167448651D01*
X140570262Y-167483844D01*
X140641703Y-167505515D01*
X140697390Y-167511000D01*
X140697392Y-167511000D01*
X140715999Y-167512833D01*
X140734606Y-167511000D01*
X155429390Y-167511000D01*
X155448000Y-167512833D01*
X155522297Y-167505515D01*
X155522300Y-167505514D01*
X155593738Y-167483844D01*
X155659579Y-167448651D01*
X155717290Y-167401290D01*
X155729160Y-167386826D01*
X156510988Y-166604999D01*
X159679196Y-166604999D01*
X159645133Y-166687235D01*
X159620000Y-166813587D01*
X159620000Y-166942413D01*
X159628893Y-166987120D01*
X158701015Y-167914999D01*
X150061773Y-167914999D01*
X150012395Y-167841100D01*
X149921300Y-167750005D01*
X149814185Y-167678433D01*
X149695165Y-167629133D01*
X149568813Y-167604000D01*
X149439987Y-167604000D01*
X149313635Y-167629133D01*
X149194615Y-167678433D01*
X149087500Y-167750005D01*
X148996405Y-167841100D01*
X148924833Y-167948215D01*
X148875533Y-168067235D01*
X148850400Y-168193587D01*
X148850400Y-168322413D01*
X148875533Y-168448765D01*
X148909596Y-168531000D01*
X144036606Y-168531000D01*
X144017999Y-168529167D01*
X143999392Y-168531000D01*
X143999390Y-168531000D01*
X143943703Y-168536485D01*
X143872262Y-168558156D01*
X143806421Y-168593349D01*
X143748710Y-168640710D01*
X143736847Y-168655166D01*
X143619120Y-168772893D01*
X143574413Y-168764000D01*
X143445587Y-168764000D01*
X143319235Y-168789133D01*
X143200215Y-168838433D01*
X143093100Y-168910005D01*
X143002005Y-169001100D01*
X142930433Y-169108215D01*
X142881133Y-169227235D01*
X142856000Y-169353587D01*
X142856000Y-169482413D01*
X142881133Y-169608765D01*
X142930433Y-169727785D01*
X143002005Y-169834900D01*
X143093100Y-169925995D01*
X143170931Y-169978000D01*
X129832100Y-169978000D01*
X129832100Y-167023265D01*
X132246000Y-167023265D01*
X132246000Y-167240735D01*
X132288426Y-167454025D01*
X132371648Y-167654940D01*
X132492467Y-167835759D01*
X132646241Y-167989533D01*
X132827060Y-168110352D01*
X133027975Y-168193574D01*
X133241265Y-168236000D01*
X133458735Y-168236000D01*
X133672025Y-168193574D01*
X133872940Y-168110352D01*
X134053759Y-167989533D01*
X134207533Y-167835759D01*
X134328352Y-167654940D01*
X134411574Y-167454025D01*
X134454000Y-167240735D01*
X134454000Y-167023265D01*
X134411574Y-166809975D01*
X134328352Y-166609060D01*
X134207533Y-166428241D01*
X134053759Y-166274467D01*
X133872940Y-166153648D01*
X133672025Y-166070426D01*
X133458735Y-166028000D01*
X133241265Y-166028000D01*
X133027975Y-166070426D01*
X132827060Y-166153648D01*
X132646241Y-166274467D01*
X132492467Y-166428241D01*
X132371648Y-166609060D01*
X132288426Y-166809975D01*
X132246000Y-167023265D01*
X129832100Y-167023265D01*
X129832100Y-161943265D01*
X132246000Y-161943265D01*
X132246000Y-162160735D01*
X132288426Y-162374025D01*
X132371648Y-162574940D01*
X132492467Y-162755759D01*
X132646241Y-162909533D01*
X132827060Y-163030352D01*
X133027975Y-163113574D01*
X133241265Y-163156000D01*
X133458735Y-163156000D01*
X133672025Y-163113574D01*
X133872940Y-163030352D01*
X134053759Y-162909533D01*
X134207533Y-162755759D01*
X134328352Y-162574940D01*
X134411574Y-162374025D01*
X134454000Y-162160735D01*
X134454000Y-161943265D01*
X134411574Y-161729975D01*
X134328352Y-161529060D01*
X134207533Y-161348241D01*
X134053759Y-161194467D01*
X133872940Y-161073648D01*
X133672025Y-160990426D01*
X133458735Y-160948000D01*
X133241265Y-160948000D01*
X133027975Y-160990426D01*
X132827060Y-161073648D01*
X132646241Y-161194467D01*
X132492467Y-161348241D01*
X132371648Y-161529060D01*
X132288426Y-161729975D01*
X132246000Y-161943265D01*
X129832100Y-161943265D01*
X129832100Y-156539287D01*
X133839000Y-156539287D01*
X133839000Y-156668113D01*
X133864133Y-156794465D01*
X133913433Y-156913485D01*
X133985005Y-157020600D01*
X134076100Y-157111695D01*
X134183215Y-157183267D01*
X134302235Y-157232567D01*
X134428587Y-157257700D01*
X134557413Y-157257700D01*
X134683765Y-157232567D01*
X134802785Y-157183267D01*
X134909900Y-157111695D01*
X135000995Y-157020600D01*
X135026319Y-156982700D01*
X137536414Y-156982700D01*
X140642393Y-160088680D01*
X140633500Y-160133387D01*
X140633500Y-160262213D01*
X140658633Y-160388565D01*
X140707933Y-160507585D01*
X140779505Y-160614700D01*
X140870600Y-160705795D01*
X140977715Y-160777367D01*
X141096735Y-160826667D01*
X141223087Y-160851800D01*
X141351913Y-160851800D01*
X141478265Y-160826667D01*
X141597285Y-160777367D01*
X141704400Y-160705795D01*
X141795495Y-160614700D01*
X141867067Y-160507585D01*
X141916367Y-160388565D01*
X141941500Y-160262213D01*
X141941500Y-160133387D01*
X141916367Y-160007035D01*
X141867067Y-159888015D01*
X141795495Y-159780900D01*
X141704400Y-159689805D01*
X141597285Y-159618233D01*
X141478265Y-159568933D01*
X141351913Y-159543800D01*
X141223087Y-159543800D01*
X141178380Y-159552693D01*
X137974560Y-156348874D01*
X137962690Y-156334410D01*
X137904979Y-156287049D01*
X137839138Y-156251856D01*
X137767697Y-156230185D01*
X137712010Y-156224700D01*
X137693400Y-156222867D01*
X137674790Y-156224700D01*
X135026319Y-156224700D01*
X135000995Y-156186800D01*
X134909900Y-156095705D01*
X134802785Y-156024133D01*
X134683765Y-155974833D01*
X134557413Y-155949700D01*
X134428587Y-155949700D01*
X134302235Y-155974833D01*
X134183215Y-156024133D01*
X134076100Y-156095705D01*
X133985005Y-156186800D01*
X133913433Y-156293915D01*
X133864133Y-156412935D01*
X133839000Y-156539287D01*
X129832100Y-156539287D01*
X129832100Y-147566865D01*
X130341000Y-147566865D01*
X130341000Y-147784335D01*
X130383426Y-147997625D01*
X130466648Y-148198540D01*
X130587467Y-148379359D01*
X130741241Y-148533133D01*
X130922060Y-148653952D01*
X131122975Y-148737174D01*
X131336265Y-148779600D01*
X131553735Y-148779600D01*
X131767025Y-148737174D01*
X131967940Y-148653952D01*
X132148759Y-148533133D01*
X132302533Y-148379359D01*
X132423352Y-148198540D01*
X132506574Y-147997625D01*
X132549000Y-147784335D01*
X132549000Y-147566865D01*
X132506574Y-147353575D01*
X132423352Y-147152660D01*
X132302533Y-146971841D01*
X132148759Y-146818067D01*
X131967940Y-146697248D01*
X131767025Y-146614026D01*
X131553735Y-146571600D01*
X131336265Y-146571600D01*
X131122975Y-146614026D01*
X130922060Y-146697248D01*
X130741241Y-146818067D01*
X130587467Y-146971841D01*
X130466648Y-147152660D01*
X130383426Y-147353575D01*
X130341000Y-147566865D01*
X129832100Y-147566865D01*
X129832100Y-145026865D01*
X130341000Y-145026865D01*
X130341000Y-145244335D01*
X130383426Y-145457625D01*
X130466648Y-145658540D01*
X130587467Y-145839359D01*
X130741241Y-145993133D01*
X130922060Y-146113952D01*
X131122975Y-146197174D01*
X131336265Y-146239600D01*
X131553735Y-146239600D01*
X131767025Y-146197174D01*
X131967940Y-146113952D01*
X132148759Y-145993133D01*
X132302533Y-145839359D01*
X132423352Y-145658540D01*
X132506574Y-145457625D01*
X132549000Y-145244335D01*
X132549000Y-145026865D01*
X132506574Y-144813575D01*
X132423352Y-144612660D01*
X132302533Y-144431841D01*
X132148759Y-144278067D01*
X131967940Y-144157248D01*
X131767025Y-144074026D01*
X131553735Y-144031600D01*
X131336265Y-144031600D01*
X131122975Y-144074026D01*
X130922060Y-144157248D01*
X130741241Y-144278067D01*
X130587467Y-144431841D01*
X130466648Y-144612660D01*
X130383426Y-144813575D01*
X130341000Y-145026865D01*
X129832100Y-145026865D01*
X129832100Y-143369715D01*
X150185473Y-143275632D01*
X150114005Y-143347100D01*
X150042433Y-143454215D01*
X149993133Y-143573235D01*
X149968000Y-143699587D01*
X149968000Y-143828413D01*
X149993133Y-143954765D01*
X150042433Y-144073785D01*
X150114005Y-144180900D01*
X150205100Y-144271995D01*
X150312215Y-144343567D01*
X150431235Y-144392867D01*
X150557587Y-144418000D01*
X150686413Y-144418000D01*
X150812765Y-144392867D01*
X150931785Y-144343567D01*
X151038900Y-144271995D01*
X151129995Y-144180900D01*
X151172023Y-144118000D01*
X154285370Y-144118000D01*
X154586000Y-144418632D01*
X154586001Y-150579976D01*
X154523100Y-150622005D01*
X154432005Y-150713100D01*
X154360433Y-150820215D01*
X154311133Y-150939235D01*
X154286000Y-151065587D01*
X154286000Y-151194413D01*
X154311133Y-151320765D01*
X154360433Y-151439785D01*
X154432005Y-151546900D01*
X154523100Y-151637995D01*
X154630215Y-151709567D01*
X154749235Y-151758867D01*
X154790122Y-151767000D01*
X154457319Y-151767000D01*
X154431995Y-151729100D01*
X154340900Y-151638005D01*
X154233785Y-151566433D01*
X154114765Y-151517133D01*
X153988413Y-151492000D01*
X153859587Y-151492000D01*
X153733235Y-151517133D01*
X153614215Y-151566433D01*
X153507100Y-151638005D01*
X153416005Y-151729100D01*
X153344433Y-151836215D01*
X153295133Y-151955235D01*
X153270000Y-152081587D01*
X153270000Y-152210413D01*
X153295133Y-152336765D01*
X153344433Y-152455785D01*
X153393354Y-152529000D01*
X144544610Y-152529000D01*
X144526000Y-152527167D01*
X144451702Y-152534485D01*
X144430031Y-152541059D01*
X144380262Y-152556156D01*
X144314421Y-152591349D01*
X144256710Y-152638710D01*
X144244844Y-152653169D01*
X143619121Y-153278893D01*
X143574413Y-153270000D01*
X143445587Y-153270000D01*
X143319235Y-153295133D01*
X143200215Y-153344433D01*
X143093100Y-153416005D01*
X143002005Y-153507100D01*
X142930433Y-153614215D01*
X142881133Y-153733235D01*
X142856000Y-153859587D01*
X142856000Y-153988413D01*
X142881133Y-154114765D01*
X142930433Y-154233785D01*
X143000133Y-154338099D01*
X142946215Y-154360433D01*
X142839100Y-154432005D01*
X142748005Y-154523100D01*
X142676433Y-154630215D01*
X142627133Y-154749235D01*
X142602000Y-154875587D01*
X142602000Y-155004413D01*
X142627133Y-155130765D01*
X142676433Y-155249785D01*
X142748005Y-155356900D01*
X142839100Y-155447995D01*
X142946215Y-155519567D01*
X143065235Y-155568867D01*
X143191587Y-155594000D01*
X143320413Y-155594000D01*
X143446765Y-155568867D01*
X143565785Y-155519567D01*
X143672900Y-155447995D01*
X143763995Y-155356900D01*
X143789319Y-155319000D01*
X150218122Y-155319000D01*
X150177235Y-155327133D01*
X150058215Y-155376433D01*
X149951100Y-155448005D01*
X149860005Y-155539100D01*
X149788433Y-155646215D01*
X149739133Y-155765235D01*
X149714000Y-155891587D01*
X149714000Y-155919322D01*
X149661785Y-155884433D01*
X149542765Y-155835133D01*
X149416413Y-155810000D01*
X149287587Y-155810000D01*
X149161235Y-155835133D01*
X149042215Y-155884433D01*
X148935100Y-155956005D01*
X148844005Y-156047100D01*
X148772433Y-156154215D01*
X148723133Y-156273235D01*
X148698000Y-156399587D01*
X148698000Y-156528413D01*
X148723133Y-156654765D01*
X148772433Y-156773785D01*
X148844005Y-156880900D01*
X148935100Y-156971995D01*
X148973000Y-156997319D01*
X148973000Y-157011075D01*
X148971167Y-157029685D01*
X148978485Y-157103982D01*
X148985059Y-157125653D01*
X149000156Y-157175422D01*
X149035349Y-157241263D01*
X149082710Y-157298975D01*
X149097174Y-157310845D01*
X149665160Y-157878832D01*
X149677026Y-157893291D01*
X149734737Y-157940652D01*
X149800578Y-157975845D01*
X149872019Y-157997516D01*
X149946316Y-158004834D01*
X149964926Y-158003001D01*
X153746104Y-158003001D01*
X153670005Y-158079100D01*
X153598433Y-158186215D01*
X153549133Y-158305235D01*
X153524000Y-158431587D01*
X153524000Y-158560413D01*
X153549133Y-158686765D01*
X153598433Y-158805785D01*
X153670005Y-158912900D01*
X153761100Y-159003995D01*
X153868215Y-159075567D01*
X153987235Y-159124867D01*
X154113587Y-159150000D01*
X154242413Y-159150000D01*
X154368765Y-159124867D01*
X154487785Y-159075567D01*
X154594900Y-159003995D01*
X154685995Y-158912900D01*
X154757567Y-158805785D01*
X154774461Y-158765000D01*
X155676681Y-158765000D01*
X155702005Y-158802900D01*
X155793100Y-158893995D01*
X155900215Y-158965567D01*
X156019235Y-159014867D01*
X156145587Y-159040000D01*
X156274413Y-159040000D01*
X156400765Y-159014867D01*
X156519785Y-158965567D01*
X156626900Y-158893995D01*
X156717995Y-158802900D01*
X156789567Y-158695785D01*
X156838867Y-158576765D01*
X156864000Y-158450413D01*
X156864000Y-158321587D01*
X156838867Y-158195235D01*
X156789567Y-158076215D01*
X156717995Y-157969100D01*
X156626900Y-157878005D01*
X156519785Y-157806433D01*
X156400765Y-157757133D01*
X156274413Y-157732000D01*
X156145587Y-157732000D01*
X156019235Y-157757133D01*
X155900215Y-157806433D01*
X155793100Y-157878005D01*
X155702005Y-157969100D01*
X155676681Y-158007000D01*
X154613895Y-158007000D01*
X154609896Y-158003001D01*
X155031389Y-158003001D01*
X155049999Y-158004834D01*
X155124296Y-157997516D01*
X155195737Y-157975845D01*
X155261578Y-157940652D01*
X155319289Y-157893291D01*
X155331159Y-157878827D01*
X155592879Y-157617107D01*
X155637587Y-157626000D01*
X155766413Y-157626000D01*
X155892765Y-157600867D01*
X156011785Y-157551567D01*
X156118900Y-157479995D01*
X156209995Y-157388900D01*
X156281567Y-157281785D01*
X156330867Y-157162765D01*
X156356000Y-157036413D01*
X156356000Y-156907587D01*
X156330867Y-156781235D01*
X156281567Y-156662215D01*
X156209995Y-156555100D01*
X156118900Y-156464005D01*
X156011785Y-156392433D01*
X155892765Y-156343133D01*
X155857807Y-156336179D01*
X158906987Y-153287000D01*
X164181014Y-153287000D01*
X164200893Y-153306879D01*
X164192000Y-153351587D01*
X164192000Y-153480413D01*
X164217133Y-153606765D01*
X164266433Y-153725785D01*
X164338005Y-153832900D01*
X164429100Y-153923995D01*
X164429107Y-153924000D01*
X164429100Y-153924005D01*
X164338005Y-154015100D01*
X164266433Y-154122215D01*
X164217133Y-154241235D01*
X164192000Y-154367587D01*
X164192000Y-154496413D01*
X164202823Y-154550823D01*
X164148413Y-154540000D01*
X164019587Y-154540000D01*
X163893235Y-154565133D01*
X163774215Y-154614433D01*
X163667100Y-154686005D01*
X163576005Y-154777100D01*
X163504433Y-154884215D01*
X163455133Y-155003235D01*
X163430000Y-155129587D01*
X163430000Y-155258413D01*
X163455133Y-155384765D01*
X163504433Y-155503785D01*
X163576005Y-155610900D01*
X163667100Y-155701995D01*
X163774215Y-155773567D01*
X163893235Y-155822867D01*
X164019587Y-155848000D01*
X164148413Y-155848000D01*
X164274765Y-155822867D01*
X164393785Y-155773567D01*
X164500900Y-155701995D01*
X164591995Y-155610900D01*
X164617319Y-155573000D01*
X165081390Y-155573000D01*
X165100000Y-155574833D01*
X165174297Y-155567515D01*
X165245738Y-155545844D01*
X165311579Y-155510651D01*
X165369290Y-155463290D01*
X165381160Y-155448826D01*
X166768880Y-154061107D01*
X166813587Y-154070000D01*
X166942413Y-154070000D01*
X167068765Y-154044867D01*
X167187785Y-153995567D01*
X167294900Y-153923995D01*
X167385995Y-153832900D01*
X167457567Y-153725785D01*
X167506867Y-153606765D01*
X167532000Y-153480413D01*
X167532000Y-153351587D01*
X167506867Y-153225235D01*
X167457567Y-153106215D01*
X167385995Y-152999100D01*
X167294900Y-152908005D01*
X167187785Y-152836433D01*
X167068765Y-152787133D01*
X167033807Y-152780180D01*
X167132832Y-152681155D01*
X167147290Y-152669290D01*
X167194651Y-152611579D01*
X167229844Y-152545738D01*
X167251515Y-152474297D01*
X167256293Y-152425792D01*
X167294900Y-152399995D01*
X167385995Y-152308900D01*
X167457567Y-152201785D01*
X167506867Y-152082765D01*
X167532000Y-151956413D01*
X167532000Y-151827587D01*
X167506867Y-151701235D01*
X167457567Y-151582215D01*
X167385995Y-151475100D01*
X167294900Y-151384005D01*
X167187785Y-151312433D01*
X167099828Y-151276000D01*
X167196413Y-151276000D01*
X167322765Y-151250867D01*
X167441785Y-151201567D01*
X167548900Y-151129995D01*
X167639995Y-151038900D01*
X167711567Y-150931785D01*
X167760867Y-150812765D01*
X167786000Y-150686413D01*
X167786000Y-150557587D01*
X167760867Y-150431235D01*
X167711567Y-150312215D01*
X167639995Y-150205100D01*
X167548900Y-150114005D01*
X167486000Y-150071977D01*
X167486000Y-148074865D01*
X192507500Y-148074865D01*
X192507500Y-148292335D01*
X192549926Y-148505625D01*
X192633148Y-148706540D01*
X192753967Y-148887359D01*
X192907741Y-149041133D01*
X193088560Y-149161952D01*
X193289475Y-149245174D01*
X193502765Y-149287600D01*
X193720235Y-149287600D01*
X193933525Y-149245174D01*
X194134440Y-149161952D01*
X194315259Y-149041133D01*
X194469033Y-148887359D01*
X194589852Y-148706540D01*
X194673074Y-148505625D01*
X194715500Y-148292335D01*
X194715500Y-148074865D01*
X194673074Y-147861575D01*
X194589852Y-147660660D01*
X194469033Y-147479841D01*
X194315259Y-147326067D01*
X194134440Y-147205248D01*
X193933525Y-147122026D01*
X193720235Y-147079600D01*
X193502765Y-147079600D01*
X193289475Y-147122026D01*
X193088560Y-147205248D01*
X192907741Y-147326067D01*
X192753967Y-147479841D01*
X192633148Y-147660660D01*
X192549926Y-147861575D01*
X192507500Y-148074865D01*
X167486000Y-148074865D01*
X167486000Y-146958630D01*
X168040631Y-146404000D01*
X168359977Y-146404000D01*
X168402005Y-146466900D01*
X168493100Y-146557995D01*
X168600215Y-146629567D01*
X168719235Y-146678867D01*
X168845587Y-146704000D01*
X168974413Y-146704000D01*
X169100765Y-146678867D01*
X169219785Y-146629567D01*
X169326900Y-146557995D01*
X169417995Y-146466900D01*
X169489567Y-146359785D01*
X169538867Y-146240765D01*
X169564000Y-146114413D01*
X169564000Y-145985587D01*
X169538867Y-145859235D01*
X169489567Y-145740215D01*
X169417995Y-145633100D01*
X169326900Y-145542005D01*
X169316215Y-145534865D01*
X192507500Y-145534865D01*
X192507500Y-145752335D01*
X192549926Y-145965625D01*
X192633148Y-146166540D01*
X192753967Y-146347359D01*
X192907741Y-146501133D01*
X193088560Y-146621952D01*
X193289475Y-146705174D01*
X193502765Y-146747600D01*
X193720235Y-146747600D01*
X193933525Y-146705174D01*
X194134440Y-146621952D01*
X194315259Y-146501133D01*
X194469033Y-146347359D01*
X194589852Y-146166540D01*
X194673074Y-145965625D01*
X194715500Y-145752335D01*
X194715500Y-145534865D01*
X194673074Y-145321575D01*
X194589852Y-145120660D01*
X194469033Y-144939841D01*
X194315259Y-144786067D01*
X194134440Y-144665248D01*
X193933525Y-144582026D01*
X193720235Y-144539600D01*
X193502765Y-144539600D01*
X193289475Y-144582026D01*
X193088560Y-144665248D01*
X192907741Y-144786067D01*
X192753967Y-144939841D01*
X192633148Y-145120660D01*
X192549926Y-145321575D01*
X192507500Y-145534865D01*
X169316215Y-145534865D01*
X169219785Y-145470433D01*
X169100765Y-145421133D01*
X168974413Y-145396000D01*
X168845587Y-145396000D01*
X168719235Y-145421133D01*
X168600215Y-145470433D01*
X168493100Y-145542005D01*
X168402005Y-145633100D01*
X168359977Y-145696000D01*
X167911374Y-145696000D01*
X167894000Y-145694289D01*
X167876626Y-145696000D01*
X167876618Y-145696000D01*
X167824604Y-145701123D01*
X167757875Y-145721365D01*
X167696377Y-145754236D01*
X167642474Y-145798474D01*
X167631393Y-145811976D01*
X166893977Y-146549393D01*
X166880475Y-146560474D01*
X166836237Y-146614377D01*
X166828118Y-146629567D01*
X166803366Y-146675875D01*
X166783123Y-146742604D01*
X166776289Y-146812000D01*
X166778001Y-146829384D01*
X166778000Y-150071976D01*
X166715100Y-150114005D01*
X166624005Y-150205100D01*
X166552433Y-150312215D01*
X166503133Y-150431235D01*
X166478000Y-150557587D01*
X166478000Y-150686413D01*
X166503133Y-150812765D01*
X166552433Y-150931785D01*
X166624005Y-151038900D01*
X166715100Y-151129995D01*
X166822215Y-151201567D01*
X166910172Y-151238000D01*
X166813587Y-151238000D01*
X166687235Y-151263133D01*
X166568215Y-151312433D01*
X166466039Y-151380705D01*
X166490867Y-151320765D01*
X166516000Y-151194413D01*
X166516000Y-151065587D01*
X166490867Y-150939235D01*
X166441567Y-150820215D01*
X166369995Y-150713100D01*
X166278900Y-150622005D01*
X166216000Y-150579977D01*
X166216000Y-146450630D01*
X168802631Y-143864000D01*
X169375977Y-143864000D01*
X169418005Y-143926900D01*
X169509100Y-144017995D01*
X169616215Y-144089567D01*
X169735235Y-144138867D01*
X169861587Y-144164000D01*
X169990413Y-144164000D01*
X170116765Y-144138867D01*
X170235785Y-144089567D01*
X170342900Y-144017995D01*
X170433995Y-143926900D01*
X170505567Y-143819785D01*
X170554867Y-143700765D01*
X170580000Y-143574413D01*
X170580000Y-143445587D01*
X170554867Y-143319235D01*
X170507135Y-143204000D01*
X195516500Y-143204000D01*
X195516500Y-169736085D01*
%TD*%
M02*
